<?xml version="1.0" encoding="utf-8"?>
<!-- Generator: Adobe Illustrator 27.5.0, SVG Export Plug-In . SVG Version: 6.00 Build 0)  -->
<svg version="1.1" xmlns="http://www.w3.org/2000/svg" xmlns:xlink="http://www.w3.org/1999/xlink" x="0px" y="0px"
	 viewBox="0 0 500 500" style="enable-background:new 0 0 500 500;" xml:space="preserve">
<g id="BACKGROUND">
	<g>
		<rect style="fill:#66C8CF;" width="500" height="500"/>
		<rect y="331.771" style="fill:#4DB4B5;" width="500" height="168.229"/>
	</g>
</g>
<g id="OBJECTS">
	<g>
		<g>
			<g>
				<g>
					<path style="fill:#523D48;" d="M111.713,331.952h276.636c3.798,0,6.877-3.079,6.877-6.877v-157.37
						c0-8.395-6.806-15.201-15.201-15.201H121.455c-8.342,0-15.125,6.722-15.2,15.064l-1.418,157.445
						C104.802,328.835,107.891,331.952,111.713,331.952z"/>
					<path style="fill:#64505C;" d="M387.32,169.452v155.678L358.4,325.2l-201.393,0.483l-44.327,0.107V169.452
						c0-5.299,4.295-9.598,9.594-9.598h255.449C383.022,159.855,387.32,164.153,387.32,169.452z"/>
					<path style="fill:#523D48;" d="M354.257,325.2l-201.393,0.483c-3.907-30.734-9.759-100.208,11.925-130.735
						c17.064-13.018,44.473-18.003,44.473-18.003s0.407-9.736,11.691-17.09h76.875c5.671,8.102,6.132,21.45,6.132,21.45
						s35.508,11.216,45.477,29.281C358.506,227.024,368.088,288.852,354.257,325.2z"/>
				</g>
			</g>
			<g>
				<path style="fill:#3E4E5C;" d="M426.616,430.386H73.462c-3.922,0-8.063-1.978-8.483-7.737v-5.292l38.656-71.43
					c2.078-4.185,6.347-6.832,11.02-6.832h270.252c5.043,0,16.164,9.932,18.418,14.444l31.891,65.012v2.335
					C435.294,427.656,430.917,430.386,426.616,430.386z"/>
				<path style="fill:#B5CCD7;" d="M426.648,422.909H73.493c-3.922,0-10.377-3.439-7.952-7.667l38.125-76.792
					c2.078-4.185,6.348-6.832,11.02-6.832h270.252c5.043,0,9.653,2.85,11.908,7.361l37.74,75.521
					C437.232,419.313,430.949,422.909,426.648,422.909z"/>
				<path style="fill:#52687A;" d="M301.26,417.286H197.201c-1.155,0-2.035-1.033-1.853-2.173l4.388-27.409
					c0.237-1.479,1.512-2.566,3.01-2.566h93.857c1.33,0,2.458,0.976,2.65,2.292l4.022,27.564
					C303.432,416.209,302.485,417.286,301.26,417.286z"/>
				<g>
					<path style="fill:#52687A;" d="M132.105,343.124h-11.309c-1.577,0-2.639-0.459-2.373-1.022l0.786-1.663
						c0.262-0.555,1.735-1.003,3.292-1.003h11.16c1.556,0,2.634,0.448,2.405,1.003l-0.684,1.663
						C135.149,342.666,133.682,343.124,132.105,343.124z"/>
					<path style="fill:#52687A;" d="M151.177,343.124h-11.309c-1.577,0-2.67-0.459-2.443-1.022l0.672-1.663
						c0.224-0.555,1.667-1.003,3.223-1.003h11.16c1.556,0,2.664,0.448,2.474,1.003l-0.571,1.663
						C154.19,342.666,152.754,343.124,151.177,343.124z"/>
					<path style="fill:#52687A;" d="M170.25,343.124H158.94c-1.577,0-2.701-0.459-2.512-1.022l0.559-1.663
						c0.186-0.555,1.599-1.003,3.155-1.003h11.16c1.556,0,2.695,0.448,2.542,1.003l-0.458,1.663
						C173.232,342.666,171.827,343.124,170.25,343.124z"/>
					<path style="fill:#52687A;" d="M189.322,343.124h-11.309c-1.577,0-2.733-0.459-2.582-1.022l0.445-1.663
						c0.149-0.555,1.53-1.003,3.087-1.003h11.16c1.556,0,2.725,0.448,2.611,1.003l-0.344,1.663
						C192.273,342.666,190.9,343.124,189.322,343.124z"/>
					<path style="fill:#52687A;" d="M208.395,343.124h-11.309c-1.577,0-2.764-0.459-2.652-1.022l0.332-1.663
						c0.111-0.555,1.462-1.003,3.018-1.003h11.16c1.556,0,2.756,0.448,2.679,1.003l-0.23,1.663
						C211.314,342.666,209.972,343.124,208.395,343.124z"/>
					<path style="fill:#52687A;" d="M227.467,343.124h-11.309c-1.577,0-2.796-0.459-2.721-1.022l0.218-1.663
						c0.073-0.555,1.393-1.003,2.95-1.003h11.16c1.556,0,2.786,0.448,2.747,1.003l-0.117,1.663
						C230.355,342.666,229.045,343.124,227.467,343.124z"/>
					<path style="fill:#52687A;" d="M246.54,343.124h-11.309c-1.577,0-2.827-0.459-2.791-1.022l0.105-1.663
						c0.035-0.555,1.325-1.003,2.881-1.003h11.16c1.556,0,2.817,0.448,2.816,1.003l-0.004,1.663
						C249.397,342.666,248.117,343.124,246.54,343.124z"/>
					<path style="fill:#52687A;" d="M265.613,343.124h-11.309c-1.577,0-2.858-0.459-2.861-1.022l-0.009-1.663
						c-0.003-0.555,1.256-1.003,2.813-1.003h11.16c1.556,0,2.848,0.448,2.884,1.003l0.11,1.663
						C268.438,342.666,267.19,343.124,265.613,343.124z"/>
					<path style="fill:#52687A;" d="M284.685,343.124h-11.309c-1.577,0-2.889-0.459-2.931-1.022l-0.122-1.663
						c-0.041-0.555,1.188-1.003,2.744-1.003h11.16c1.556,0,2.878,0.448,2.953,1.003l0.223,1.663
						C287.479,342.666,286.262,343.124,284.685,343.124z"/>
					<path style="fill:#52687A;" d="M303.758,343.124h-11.309c-1.577,0-2.921-0.459-3-1.022l-0.236-1.663
						c-0.079-0.555,1.12-1.003,2.676-1.003h11.16c1.556,0,2.909,0.448,3.021,1.003l0.337,1.663
						C306.521,342.666,305.335,343.124,303.758,343.124z"/>
					<path style="fill:#52687A;" d="M322.83,343.124h-11.309c-1.577,0-2.952-0.459-3.07-1.022l-0.349-1.663
						c-0.117-0.555,1.051-1.003,2.607-1.003h11.16c1.556,0,2.939,0.448,3.09,1.003l0.45,1.663
						C325.562,342.666,324.408,343.124,322.83,343.124z"/>
					<path style="fill:#52687A;" d="M341.903,343.124h-11.309c-1.577,0-2.983-0.459-3.14-1.022l-0.463-1.663
						c-0.154-0.555,0.983-1.003,2.539-1.003h11.16c1.556,0,2.97,0.448,3.158,1.003l0.564,1.663
						C344.603,342.666,343.48,343.124,341.903,343.124z"/>
					<path style="fill:#52687A;" d="M360.976,343.124h-11.309c-1.577,0-3.015-0.459-3.21-1.022l-0.576-1.663
						c-0.192-0.555,0.914-1.003,2.471-1.003h11.16c1.556,0,3,0.448,3.227,1.003l0.677,1.663
						C363.645,342.666,362.553,343.124,360.976,343.124z"/>
					<path style="fill:#52687A;" d="M380.048,343.124h-11.309c-1.577,0-3.046-0.459-3.28-1.022l-0.689-1.663
						c-0.23-0.555,0.846-1.003,2.402-1.003h11.16c1.556,0,3.031,0.448,3.295,1.003l0.791,1.663
						C382.686,342.666,381.625,343.124,380.048,343.124z"/>
					<path style="fill:#52687A;" d="M130.733,349.367h-14.472c-0.36,0-0.602-0.107-0.54-0.24l2.45-5.211
						c0.06-0.127,0.395-0.23,0.748-0.23h14.184c0.353,0,0.597,0.103,0.544,0.23l-2.163,5.211
						C131.43,349.259,131.094,349.367,130.733,349.367z"/>
					<path style="fill:#52687A;" d="M157.168,356.24h-14.82c-0.369,0-0.627-0.112-0.575-0.251l2.021-5.462
						c0.049-0.133,0.382-0.241,0.744-0.241h14.518c0.362,0,0.621,0.108,0.579,0.241l-1.72,5.462
						C157.871,356.127,157.537,356.24,157.168,356.24z"/>
					<path style="fill:#52687A;" d="M159.303,363.451h-15.185c-0.378,0-0.643-0.118-0.591-0.264l2.037-5.731
						c0.05-0.14,0.39-0.253,0.76-0.253h14.869c0.37,0,0.637,0.113,0.595,0.253l-1.721,5.731
						C160.023,363.333,159.681,363.451,159.303,363.451z"/>
					<path style="fill:#52687A;" d="M167.577,371.027h-15.568c-0.388,0-0.662-0.124-0.613-0.277l1.933-6.021
						c0.047-0.147,0.393-0.266,0.772-0.266h15.236c0.379,0,0.655,0.119,0.616,0.266l-1.6,6.021
						C168.312,370.903,167.965,371.027,167.577,371.027z"/>
					<path style="fill:#52687A;" d="M117.947,379.896h-15.928c-0.424,0-0.701-0.14-0.62-0.312l3.386-7.199
						c0.077-0.164,0.475-0.297,0.888-0.297h15.535c0.413,0,0.693,0.133,0.625,0.297l-2.988,7.199
						C118.772,379.756,118.37,379.896,117.947,379.896z"/>
					<path style="fill:#52687A;" d="M139.218,379.896H123.29c-0.424,0-0.711-0.14-0.641-0.312l2.901-7.199
						c0.066-0.164,0.454-0.297,0.868-0.297h15.535c0.413,0,0.702,0.133,0.645,0.297l-2.504,7.199
						C140.034,379.756,139.642,379.896,139.218,379.896z"/>
					<path style="fill:#52687A;" d="M159.848,379.896h-15.928c-0.424,0-0.72-0.14-0.662-0.312l2.432-7.199
						c0.055-0.164,0.435-0.297,0.848-0.297h15.535c0.413,0,0.71,0.133,0.664,0.297l-2.034,7.199
						C160.654,379.756,160.271,379.896,159.848,379.896z"/>
					<path style="fill:#52687A;" d="M185.847,379.896h-21.018c-0.484,0-0.832-0.159-0.779-0.356l1.935-7.113
						c0.051-0.187,0.475-0.339,0.946-0.339h20.499c0.472,0,0.824,0.152,0.786,0.339l-1.423,7.113
						C186.754,379.737,186.33,379.896,185.847,379.896z"/>
					<path style="fill:#52687A;" d="M315.144,379.896h-21.018c-0.484,0-0.898-0.159-0.924-0.356l-0.973-7.113
						c-0.026-0.187,0.336-0.339,0.808-0.339h20.499c0.472,0,0.886,0.152,0.925,0.339l1.485,7.113
						C315.987,379.737,315.628,379.896,315.144,379.896z"/>
					<path style="fill:#52687A;" d="M336.423,379.896h-15.703c-0.421,0-0.792-0.139-0.83-0.31l-1.593-7.203
						c-0.036-0.163,0.267-0.295,0.678-0.295h15.316c0.41,0,0.779,0.132,0.824,0.295l1.986,7.203
						C337.146,379.757,336.843,379.896,336.423,379.896z"/>
					<path style="fill:#52687A;" d="M288.884,379.896h-96.982c-1.017,0-1.778-0.335-1.7-0.747l1.203-6.347
						c0.075-0.395,0.939-0.714,1.931-0.714h94.588c0.992,0,1.837,0.319,1.888,0.714l0.817,6.347
						C290.682,379.561,289.901,379.896,288.884,379.896z"/>
					<path style="fill:#52687A;" d="M187.795,371.027h-15.569c-0.388,0-0.67-0.124-0.631-0.277l1.537-6.021
						c0.037-0.147,0.375-0.266,0.755-0.266h15.236c0.379,0,0.663,0.119,0.634,0.266l-1.205,6.021
						C188.522,370.903,188.182,371.027,187.795,371.027z"/>
					<path style="fill:#52687A;" d="M208.012,371.027h-15.569c-0.388,0-0.678-0.124-0.65-0.277l1.141-6.021
						c0.028-0.147,0.358-0.266,0.738-0.266h15.236c0.379,0,0.671,0.119,0.651,0.266l-0.809,6.021
						C208.731,370.903,208.4,371.027,208.012,371.027z"/>
					<path style="fill:#52687A;" d="M228.229,371.027h-15.569c-0.388,0-0.686-0.124-0.668-0.277l0.745-6.021
						c0.018-0.147,0.34-0.266,0.72-0.266h15.236c0.379,0,0.679,0.119,0.669,0.266l-0.413,6.021
						C228.94,370.903,228.617,371.027,228.229,371.027z"/>
					<path style="fill:#52687A;" d="M248.447,371.027h-15.569c-0.388,0-0.695-0.124-0.686-0.277l0.349-6.021
						c0.009-0.147,0.323-0.266,0.702-0.266h15.236c0.379,0,0.687,0.119,0.686,0.266l-0.017,6.021
						C249.149,370.903,248.834,371.027,248.447,371.027z"/>
					<path style="fill:#52687A;" d="M268.664,371.027h-15.569c-0.388,0-0.703-0.124-0.704-0.277l-0.047-6.021
						c-0.001-0.147,0.305-0.266,0.685-0.266h15.236c0.379,0,0.695,0.119,0.704,0.266l0.379,6.021
						C269.358,370.903,269.052,371.027,268.664,371.027z"/>
					<path style="fill:#52687A;" d="M288.881,371.027h-15.569c-0.388,0-0.711-0.124-0.722-0.277l-0.443-6.021
						c-0.011-0.147,0.288-0.266,0.667-0.266h15.236c0.379,0,0.702,0.119,0.721,0.266l0.775,6.021
						C289.567,370.903,289.269,371.027,288.881,371.027z"/>
					<path style="fill:#52687A;" d="M309.099,371.027H293.53c-0.388,0-0.719-0.124-0.741-0.277l-0.839-6.021
						c-0.021-0.147,0.271-0.266,0.65-0.266h15.236c0.379,0,0.71,0.119,0.739,0.266l1.171,6.021
						C309.777,370.903,309.486,371.027,309.099,371.027z"/>
					<path style="fill:#52687A;" d="M329.316,371.027h-15.569c-0.388,0-0.728-0.124-0.759-0.277l-1.235-6.021
						c-0.03-0.147,0.253-0.266,0.633-0.266h15.236c0.379,0,0.718,0.119,0.756,0.266l1.567,6.021
						C329.986,370.903,329.704,371.027,329.316,371.027z"/>
					<path style="fill:#52687A;" d="M355.243,380.018h-12.181c-1.549,0-2.95-0.51-3.129-1.137l-0.52-1.822
						c-0.176-0.617,0.921-1.116,2.45-1.116h12.024c1.529,0,2.939,0.499,3.149,1.116l0.622,1.822
						C357.874,379.508,356.792,380.018,355.243,380.018z"/>
					<path style="fill:#52687A;" d="M376.116,380.018h-12.181c-1.549,0-2.984-0.51-3.204-1.137l-0.64-1.822
						c-0.217-0.617,0.848-1.116,2.377-1.116h12.024c1.529,0,2.971,0.499,3.223,1.116l0.743,1.822
						C378.713,379.508,377.665,380.018,376.116,380.018z"/>
					<path style="fill:#52687A;" d="M374.299,375.458h-12.006c-1.526,0-2.938-0.495-3.152-1.104l-0.622-1.77
						c-0.211-0.6,0.841-1.084,2.348-1.084h11.853c1.507,0,2.926,0.484,3.171,1.084l0.721,1.77
						C376.861,374.962,375.825,375.458,374.299,375.458z"/>
					<path style="fill:#52687A;" d="M396.989,380.018h-12.181c-1.549,0-3.017-0.51-3.279-1.137l-0.76-1.822
						c-0.257-0.617,0.774-1.116,2.303-1.116h12.024c1.529,0,3.004,0.499,3.296,1.116l0.863,1.822
						C399.552,379.508,398.538,380.018,396.989,380.018z"/>
					<path style="fill:#52687A;" d="M179.204,363.451h-15.185c-0.378,0-0.651-0.118-0.609-0.264l1.657-5.731
						c0.04-0.14,0.373-0.253,0.744-0.253h14.868c0.37,0,0.644,0.113,0.611,0.253l-1.34,5.731
						C179.917,363.333,179.582,363.451,179.204,363.451z"/>
					<path style="fill:#52687A;" d="M199.106,363.451h-15.185c-0.378,0-0.658-0.118-0.626-0.264l1.276-5.731
						c0.031-0.14,0.357-0.253,0.727-0.253h14.868c0.37,0,0.651,0.113,0.628,0.253l-0.96,5.731
						C199.81,363.333,199.484,363.451,199.106,363.451z"/>
					<path style="fill:#52687A;" d="M219.008,363.451h-15.185c-0.378,0-0.666-0.118-0.644-0.264l0.896-5.731
						c0.022-0.14,0.34-0.253,0.71-0.253h14.869c0.37,0,0.659,0.113,0.645,0.253l-0.579,5.731
						C219.704,363.333,219.386,363.451,219.008,363.451z"/>
					<path style="fill:#52687A;" d="M238.788,363.451h-15.185c-0.378,0-0.674-0.118-0.661-0.264l0.518-5.731
						c0.013-0.14,0.323-0.253,0.693-0.253h14.868c0.37,0,0.666,0.113,0.662,0.253l-0.201,5.731
						C239.476,363.333,239.166,363.451,238.788,363.451z"/>
					<path style="fill:#52687A;" d="M258.689,363.451h-15.185c-0.378,0-0.682-0.118-0.678-0.264l0.137-5.731
						c0.003-0.14,0.306-0.253,0.676-0.253h14.868c0.37,0,0.674,0.113,0.678,0.253l0.179,5.731
						C259.37,363.333,259.068,363.451,258.689,363.451z"/>
					<path style="fill:#52687A;" d="M277.739,363.451h-15.185c-0.378,0-0.689-0.118-0.695-0.264l-0.227-5.731
						c-0.006-0.14,0.29-0.253,0.66-0.253h14.868c0.37,0,0.681,0.113,0.694,0.253l0.543,5.731
						C278.412,363.333,278.117,363.451,277.739,363.451z"/>
					<path style="fill:#52687A;" d="M297.458,363.451h-15.185c-0.378,0-0.697-0.118-0.712-0.264l-0.604-5.731
						c-0.015-0.14,0.273-0.253,0.644-0.253h14.869c0.37,0,0.689,0.113,0.711,0.253l0.92,5.731
						C298.124,363.333,297.836,363.451,297.458,363.451z"/>
					<path style="fill:#52687A;" d="M317.177,363.451h-15.185c-0.378,0-0.705-0.118-0.73-0.264l-0.981-5.731
						c-0.024-0.14,0.257-0.253,0.627-0.253h14.868c0.37,0,0.696,0.113,0.728,0.253l1.297,5.731
						C317.835,363.333,317.555,363.451,317.177,363.451z"/>
					<path style="fill:#52687A;" d="M336.774,363.451H321.59c-0.378,0-0.713-0.118-0.747-0.264l-1.355-5.731
						c-0.033-0.14,0.24-0.253,0.611-0.253h14.868c0.37,0,0.703,0.113,0.744,0.253l1.672,5.731
						C337.425,363.333,337.153,363.451,336.774,363.451z"/>
					<path style="fill:#52687A;" d="M356.372,363.451h-15.185c-0.378,0-0.72-0.118-0.764-0.264l-1.73-5.731
						c-0.042-0.14,0.224-0.253,0.594-0.253h14.868c0.37,0,0.711,0.113,0.761,0.253l2.046,5.731
						C357.014,363.333,356.75,363.451,356.372,363.451z"/>
					<path style="fill:#52687A;" d="M349.336,371.027h-15.569c-0.388,0-0.736-0.124-0.777-0.277l-1.627-6.021
						c-0.04-0.147,0.236-0.266,0.615-0.266h15.236c0.379,0,0.726,0.119,0.774,0.266l1.959,6.021
						C349.997,370.903,349.723,371.027,349.336,371.027z"/>
					<path style="fill:#52687A;" d="M391.092,363.451H361.77c-0.519,0-1-0.162-1.074-0.362l-2.047-5.538
						c-0.071-0.192,0.284-0.348,0.792-0.348h28.711c0.508,0,0.994,0.156,1.085,0.348l2.624,5.538
						C391.955,363.289,391.611,363.451,391.092,363.451z"/>
					<path style="fill:#52687A;" d="M394.509,371.027h-40.313c-0.614,0-1.177-0.197-1.258-0.439l-1.913-5.705
						c-0.078-0.233,0.346-0.421,0.946-0.421h39.452c0.601,0,1.177,0.188,1.287,0.421l2.702,5.705
						C395.527,370.831,395.123,371.027,394.509,371.027z"/>
					<path style="fill:#52687A;" d="M139.567,363.451H109.93c-0.522,0-0.868-0.163-0.774-0.364l2.603-5.535
						c0.091-0.193,0.579-0.35,1.09-0.35h29.019c0.511,0,0.868,0.156,0.798,0.35l-2.021,5.535
						C140.571,363.288,140.088,363.451,139.567,363.451z"/>
					<path style="fill:#52687A;" d="M147.109,371.027h-40.9c-0.618,0-1.026-0.198-0.911-0.442l2.686-5.699
						c0.11-0.234,0.69-0.424,1.295-0.424h40.027c0.605,0,1.032,0.19,0.955,0.424l-1.887,5.699
						C148.294,370.829,147.727,371.027,147.109,371.027z"/>
					<path style="fill:#52687A;" d="M176.492,356.24h-14.82c-0.369,0-0.634-0.112-0.592-0.251l1.661-5.462
						c0.041-0.133,0.367-0.241,0.728-0.241h14.518c0.361,0,0.628,0.108,0.594,0.241l-1.359,5.462
						C177.188,356.127,176.861,356.24,176.492,356.24z"/>
					<path style="fill:#52687A;" d="M195.697,356.24h-14.82c-0.369,0-0.641-0.112-0.608-0.251l1.303-5.462
						c0.032-0.133,0.351-0.241,0.712-0.241h14.518c0.361,0,0.635,0.108,0.61,0.241l-1.001,5.462
						C196.386,356.127,196.066,356.24,195.697,356.24z"/>
					<path style="fill:#52687A;" d="M215.021,356.24h-14.82c-0.369,0-0.649-0.112-0.625-0.251l0.942-5.462
						c0.023-0.133,0.335-0.241,0.696-0.241h14.518c0.362,0,0.642,0.108,0.626,0.241l-0.64,5.462
						C215.702,356.127,215.39,356.24,215.021,356.24z"/>
					<path style="fill:#52687A;" d="M234.345,356.24h-14.82c-0.369,0-0.656-0.112-0.642-0.251l0.581-5.462
						c0.014-0.133,0.319-0.241,0.68-0.241h14.518c0.362,0,0.649,0.108,0.642,0.241l-0.28,5.462
						C235.019,356.127,234.714,356.24,234.345,356.24z"/>
					<path style="fill:#52687A;" d="M253.55,356.24h-14.82c-0.369,0-0.664-0.112-0.658-0.251l0.223-5.462
						c0.005-0.133,0.303-0.241,0.665-0.241h14.518c0.361,0,0.656,0.108,0.658,0.241l0.079,5.462
						C254.217,356.127,253.919,356.24,253.55,356.24z"/>
					<path style="fill:#52687A;" d="M272.32,356.24H257.5c-0.369,0-0.671-0.112-0.674-0.251l-0.128-5.462
						c-0.003-0.133,0.288-0.241,0.649-0.241h14.518c0.362,0,0.663,0.108,0.674,0.241l0.429,5.462
						C272.979,356.127,272.689,356.24,272.32,356.24z"/>
					<path style="fill:#52687A;" d="M291.802,356.24h-14.82c-0.369,0-0.678-0.112-0.691-0.251l-0.491-5.462
						c-0.012-0.133,0.271-0.241,0.633-0.241h14.518c0.362,0,0.67,0.108,0.69,0.241l0.793,5.462
						C292.454,356.127,292.171,356.24,291.802,356.24z"/>
					<path style="fill:#52687A;" d="M311.047,356.24h-14.82c-0.369,0-0.686-0.112-0.707-0.251l-0.85-5.462
						c-0.021-0.133,0.256-0.241,0.617-0.241h14.518c0.361,0,0.677,0.108,0.705,0.241l1.152,5.462
						C311.692,356.127,311.416,356.24,311.047,356.24z"/>
					<path style="fill:#52687A;" d="M329.975,356.24h-14.82c-0.369,0-0.693-0.112-0.724-0.251l-1.204-5.462
						c-0.03-0.133,0.24-0.241,0.601-0.241h14.518c0.362,0,0.684,0.108,0.721,0.241l1.505,5.462
						C330.612,356.127,330.344,356.24,329.975,356.24z"/>
					<path style="fill:#52687A;" d="M349.695,356.24h-14.82c-0.369,0-0.701-0.112-0.74-0.251l-1.572-5.462
						c-0.038-0.133,0.224-0.241,0.585-0.241h14.518c0.362,0,0.692,0.108,0.738,0.241l1.873,5.462
						C350.325,356.127,350.064,356.24,349.695,356.24z"/>
					<path style="fill:#52687A;" d="M368.544,356.24h-14.82c-0.369,0-0.708-0.112-0.757-0.251l-1.923-5.462
						c-0.047-0.133,0.208-0.241,0.57-0.241h14.518c0.361,0,0.699,0.108,0.753,0.241l2.225,5.462
						C369.166,356.127,368.913,356.24,368.544,356.24z"/>
					<path style="fill:#52687A;" d="M387.947,356.24h-14.82c-0.369,0-0.715-0.112-0.773-0.251l-2.286-5.462
						c-0.056-0.133,0.192-0.241,0.554-0.241h14.518c0.362,0,0.706,0.108,0.769,0.241l2.587,5.462
						C388.562,356.127,388.316,356.24,387.947,356.24z"/>
					<path style="fill:#52687A;" d="M149.874,349.367h-14.472c-0.36,0-0.609-0.107-0.556-0.24l2.102-5.211
						c0.051-0.127,0.379-0.23,0.732-0.23h14.184c0.353,0,0.604,0.103,0.559,0.23l-1.814,5.211
						C150.564,349.259,150.235,349.367,149.874,349.367z"/>
					<path style="fill:#52687A;" d="M168.435,349.367h-14.472c-0.36,0-0.616-0.107-0.571-0.24l1.763-5.211
						c0.043-0.127,0.364-0.23,0.717-0.23h14.184c0.353,0,0.61,0.103,0.574,0.23l-1.475,5.211
						C169.118,349.259,168.795,349.367,168.435,349.367z"/>
					<path style="fill:#52687A;" d="M187.46,349.367h-14.472c-0.36,0-0.623-0.107-0.587-0.24l1.416-5.211
						c0.035-0.127,0.349-0.23,0.702-0.23h14.184c0.353,0,0.617,0.103,0.59,0.23l-1.128,5.211
						C188.136,349.259,187.82,349.367,187.46,349.367z"/>
					<path style="fill:#52687A;" d="M206.011,349.367h-14.472c-0.36,0-0.63-0.107-0.603-0.24l1.078-5.211
						c0.026-0.127,0.334-0.23,0.687-0.23h14.184c0.353,0,0.624,0.103,0.605,0.23l-0.79,5.211
						C206.68,349.259,206.371,349.367,206.011,349.367z"/>
					<path style="fill:#52687A;" d="M225.142,349.367H210.67c-0.36,0-0.637-0.107-0.619-0.24l0.729-5.211
						c0.018-0.127,0.319-0.23,0.672-0.23h14.184c0.353,0,0.631,0.103,0.62,0.23l-0.441,5.211
						C225.804,349.259,225.503,349.367,225.142,349.367z"/>
					<path style="fill:#52687A;" d="M243.529,349.367h-14.472c-0.36,0-0.644-0.107-0.634-0.24l0.394-5.211
						c0.01-0.127,0.304-0.23,0.657-0.23h14.184c0.353,0,0.638,0.103,0.635,0.23l-0.106,5.211
						C244.184,349.259,243.889,349.367,243.529,349.367z"/>
					<path style="fill:#52687A;" d="M262.631,349.367h-14.472c-0.36,0-0.652-0.107-0.65-0.24l0.045-5.211
						c0.001-0.127,0.288-0.23,0.642-0.23h14.184c0.353,0,0.644,0.103,0.65,0.23l0.242,5.211
						C263.279,349.259,262.992,349.367,262.631,349.367z"/>
					<path style="fill:#52687A;" d="M281.192,349.367H266.72c-0.36,0-0.658-0.107-0.666-0.24l-0.293-5.211
						c-0.007-0.127,0.273-0.23,0.627-0.23h14.184c0.353,0,0.651,0.103,0.665,0.23l0.581,5.211
						C281.832,349.259,281.552,349.367,281.192,349.367z"/>
					<path style="fill:#52687A;" d="M300.255,349.367h-14.472c-0.36,0-0.666-0.107-0.682-0.24l-0.641-5.211
						c-0.016-0.127,0.258-0.23,0.611-0.23h14.184c0.353,0,0.658,0.103,0.681,0.23l0.928,5.211
						C300.889,349.259,300.616,349.367,300.255,349.367z"/>
					<path style="fill:#52687A;" d="M319.28,349.367h-14.472c-0.36,0-0.673-0.107-0.698-0.24l-0.987-5.211
						c-0.024-0.127,0.243-0.23,0.596-0.23h14.184c0.353,0,0.665,0.103,0.696,0.23l1.275,5.211
						C319.906,349.259,319.641,349.367,319.28,349.367z"/>
					<path style="fill:#52687A;" d="M338.112,349.367H323.64c-0.36,0-0.68-0.107-0.714-0.24l-1.331-5.211
						c-0.033-0.127,0.228-0.23,0.581-0.23h14.184c0.353,0,0.672,0.103,0.711,0.23l1.619,5.211
						C338.731,349.259,338.472,349.367,338.112,349.367z"/>
					<path style="fill:#52687A;" d="M356.209,349.367h-14.472c-0.36,0-0.687-0.107-0.729-0.24l-1.661-5.211
						c-0.04-0.127,0.213-0.23,0.566-0.23h14.184c0.353,0,0.678,0.103,0.726,0.23l1.949,5.211
						C356.821,349.259,356.569,349.367,356.209,349.367z"/>
					<path style="fill:#52687A;" d="M383.334,349.367H361.69c-1.001,0-1.927-0.298-2.068-0.664l-1.682-4.375
						c-0.136-0.354,0.549-0.641,1.53-0.641h21.214c0.981,0,1.912,0.287,2.08,0.641l2.069,4.375
						C385.006,349.069,384.335,349.367,383.334,349.367z"/>
					<path style="fill:#52687A;" d="M136.398,356.24h-22.165c-1.025,0-1.709-0.312-1.528-0.697l2.157-4.586
						c0.175-0.371,1.13-0.672,2.134-0.672h21.714c1.004,0,1.704,0.3,1.562,0.672l-1.751,4.586
						C138.374,355.927,137.423,356.24,136.398,356.24z"/>
				</g>
			</g>
		</g>
		<g>
			<g>
				<circle style="fill:#FFFFFF;" cx="169.837" cy="138.861" r="35.458"/>
				<g>
					<path style="fill:#D4DFEF;" d="M180.894,167.711c-2.493,0.863-6.998,1.917-8.053,0.959c-1.054-0.959,2.972-4.697,2.972-4.697
						l-0.729-2.074l-1.764-5.019l5.464-2.492l1.948,5.572l0.736,2.098c0,0,4.985-0.575,5.943,0.575
						C188.498,163.934,183.386,166.848,180.894,167.711z"/>
					<path style="fill:#D0D7E2;" d="M180.733,159.958c-0.633,0.51-1.564,1.173-2.573,1.568c-1.158,0.46-2.335,0.452-3.075,0.372
						l-1.764-5.019l5.464-2.492L180.733,159.958z"/>
					<path style="fill:#D0D7E2;" d="M187.443,151.384c0,1.534-3.961,4.985-9.839,7.412c-5.311,2.193-11.251,2.301-12.144,1.66
						c-0.894-0.637,2.427-2.427,2.427-2.427l-11.247-33.744c7.412-6.519,15.721-5.242,15.721-5.242l11.63,32.21
						C183.992,151.253,187.443,149.85,187.443,151.384z"/>
					<path style="fill:#D4DFEF;" d="M187.443,151.384c0,1.534-3.961,4.985-9.839,7.412c-5.311,2.193-11.251,2.301-12.144,1.66
						c-0.894-0.637,2.427-2.427,2.427-2.427l-11.247-33.744c0,0,3.194,1.66,9.203-0.126c6.009-1.791,6.519-5.115,6.519-5.115
						l11.63,32.21C183.992,151.253,187.443,149.85,187.443,151.384z"/>
					<path style="fill:#DA5043;" d="M175.813,131.954c-2.623,2.753-5.644,3.953-8.156,4.444c-0.157,0.031-0.314,0.058-0.468,0.084
						c-2.761,0.456-4.797,0.073-4.797,0.073l-3.597-10.353c1.434,0.169,2.757,0.18,3.973,0.069c0.019,0,0.038-0.004,0.058-0.004
						c6.266-0.56,9.567-4.157,9.567-4.157S175.526,130.834,175.813,131.954z"/>
					<polygon style="fill:#F4908C;" points="170.381,125.116 172.746,132.977 174.663,131.635 171.691,123.774 					"/>
					<path style="fill:#FFFFFF;" d="M166.994,137.258c0.702,2.12,7.413,19.748,7.413,19.748s-2.812,0.831-4.41,0.192
						c-3.259-8.755-7.094-19.812-7.094-19.812S164.373,138.217,166.994,137.258z"/>
					<path style="fill:#FFFFFF;" d="M172.873,135.597l7.349,18.725c0,0,1.917-0.831,2.237-1.534c-1.15,0.383-1.15,0.383-1.15,0.383
						l-7.222-18.406C174.088,134.766,173.321,135.597,172.873,135.597z"/>
					<path style="fill:#C13B32;" d="M167.189,136.483c-2.761,0.456-4.797,0.073-4.797,0.073l-3.597-10.353
						c1.434,0.169,2.757,0.18,3.973,0.069C163.849,128.626,166.292,134.374,167.189,136.483z"/>
					<path style="fill:#A9B2BE;" d="M165.46,122.08c-0.24,0.24-0.801,0.808-1.376,0.329c-3.547-9.874-5.197-14.104-4.91-14.392
						S164.31,119.492,165.46,122.08z"/>
				</g>
			</g>
			<g>
				<circle style="fill:#FFFFFF;" cx="94.05" cy="154.813" r="27.603"/>
				<g>
					<path style="fill:#D4DFEF;" d="M114.079,152.466l0.275,3.419c0.217,2.706-0.769,5.585-3.03,7.087
						c-1.574,1.046-3.709,2.111-6.488,2.807c-1.89,0.473-4.02,0.509-5.392,0.266c-3.464-0.615-5.855-2.132-6.801-5.223l-1.037-3.388
						L114.079,152.466z"/>
					<path style="fill:#F1F4F9;" d="M114.079,152.467c0.242,2.987-1.653,7.735-9.536,9.182c-0.294,0.058-0.594,0.105-0.907,0.152
						c-0.683,0.096-1.342,0.166-1.974,0.198c-7.374,0.435-11.224-3.135-10.025-7.076c1.104-3.628,4.724-6.234,9.336-7.298
						c0.488-0.118,0.99-0.212,1.501-0.289c0.35-0.056,0.706-0.102,1.065-0.136C110.605,146.483,113.829,149.367,114.079,152.467z"/>
					<path style="fill:#B5C4D7;" d="M102.474,147.336l2.069,14.313c-0.294,0.058-0.594,0.105-0.907,0.152
						c-0.683,0.096-1.342,0.166-1.974,0.198l-0.689-14.374C101.461,147.507,101.963,147.413,102.474,147.336z"/>
				</g>
				<g>
					<path style="fill:#66C8CF;" d="M94.717,143.807c-0.169,0.651-3.316,4.692-6.63,8.807c-3.655,4.536-7.507,9.156-7.779,9.426
						c-1.071,1.059-3.636,2.325-7.051,0.382c-3.374-1.919-3.701-4.457-3.157-6.028c0.36-1.039,4.071-6.3,7.724-11.037
						c2.594-3.373,5.16-6.486,6.476-7.637c1.906-1.671,4.027-2.182,5.827-1.878c1.183,0.194,2.229,0.742,2.985,1.549
						C95.134,139.553,95.065,142.436,94.717,143.807z"/>
					<path style="fill:#EDBB1C;" d="M94.717,143.807c-0.169,0.651-3.316,4.692-6.63,8.807c-0.462-1.055-1.035-2.144-1.741-3.118
						c-0.514-0.713-1.096-1.362-1.749-1.902c-2.179-1.787-4.845-2.206-6.774-2.237c2.594-3.373,5.16-6.486,6.476-7.637
						c1.906-1.671,4.027-2.182,5.827-1.878c1.183,0.194,2.229,0.742,2.985,1.549C95.134,139.553,95.065,142.436,94.717,143.807z"/>
					<path style="fill:#40AEB0;" d="M88.087,152.614c-3.655,4.536-7.507,9.156-7.779,9.426c-1.071,1.059-3.636,2.325-7.051,0.382
						c-3.374-1.919-3.701-4.457-3.157-6.028c0,0,1.629,3.743,6.627,3.579c1.404-0.296,5.882-5.714,9.619-10.476
						C87.052,150.47,87.625,151.559,88.087,152.614z"/>
					<path style="fill:#EC9F25;" d="M94.717,143.807c-0.169,0.651-3.316,4.692-6.63,8.807c-0.462-1.055-1.035-2.144-1.741-3.118
						c2.757-3.513,5.109-6.671,5.534-7.153c1.209-1.884,1.688-4.178-1.754-6.502c1.183,0.194,2.229,0.742,2.985,1.549
						C95.134,139.553,95.065,142.436,94.717,143.807z"/>
					<path style="fill:#F9CD54;" d="M87.007,136.827c-2.126,0.917-5.125,4.791-7.093,7.721c6.988-8.271,9.441-7.486,11.348-6.843
						C90.285,136.566,88.553,136.16,87.007,136.827z"/>
				</g>
			</g>
			<g>
				
					<ellipse transform="matrix(0.9751 -0.2218 0.2218 0.9751 -49.3562 31.9745)" style="fill:#FFFFFF;" cx="117.663" cy="235.706" rx="40.141" ry="40.141"/>
				<g>
					<path style="fill:#DA5043;" d="M142.507,230.893c-0.081,0.663-0.184,1.335-0.311,2.009
						c-2.427,13.271-12.784,28.034-17.574,31.535c-1.534-0.51-18.482-4.782-27.609-13.612c-1.599-1.545-3.049-3.394-4.279-5.418
						c-0.318-0.521-0.621-1.058-0.909-1.603c-0.218-0.414-0.429-0.832-0.629-1.254c-4.222-8.927-4.214-19.974,4.858-24.702
						c12.27-6.392,19.107,6.2,19.107,6.2s0.353-8.214,6.649-11.504c5.165-2.703,13.164-3.612,18.851,6.327
						C142.599,222.311,143.04,226.48,142.507,230.893z"/>
					<path style="fill:#C13B32;" d="M124.622,264.438c-1.534-0.51-18.482-4.782-27.609-13.612c-1.599-1.545-3.049-3.394-4.279-5.418
						c-0.318-0.521-0.621-1.058-0.909-1.603c-0.218-0.414-0.429-0.832-0.629-1.254c-4.222-8.927-4.214-19.974,4.858-24.702
						c12.27-6.392,19.107,6.2,19.107,6.2s-9.521-7.926-15.656-1.503c-3.769,3.946-5.56,12.271-1.534,20.802
						C100.48,248.666,111.201,258.686,124.622,264.438z"/>
					<path style="fill:#FFFFFF;" d="M142.507,230.893c-0.081,0.663-0.184,1.335-0.311,2.009l-13.291,1.752
						c0,0-1.407,10.035-1.791,9.652c-0.383-0.383-3.578-8.946-3.578-8.946s1.212,9.395,0.575,9.073
						c-0.64-0.318-5.115-6.964-5.115-6.964s0.64,7.987-0.127,8.306c-0.767,0.322-4.218-7.539-4.218-7.539s0.257,6.71-0.192,6.454
						s-2.941-4.667-2.941-4.667s1.342,8.95,0.575,8.885c-0.767-0.065-5.495-10.096-5.495-10.096l0.318,4.663l-14.184,1.933
						c-0.318-0.521-0.621-1.058-0.909-1.603l13.241-2.42c0,0,0.257-9.092,0.575-9.092c0.318,0,5.242,11.503,5.242,11.503
						s-0.832-7.734-0.13-7.799c0.705-0.061,2.749,4.348,2.749,4.348s-0.192-7.477,0.257-7.224c0.445,0.257,3.704,7.033,3.704,7.033
						s0.257-6.584,0.767-6.457c0.514,0.13,3.708,4.732,3.708,4.732s-0.959-11.377-0.127-11.569
						c0.828-0.192,4.471,10.545,4.471,10.545s0.257-4.345,0.64-4.601C128.959,232.358,137.472,231.426,142.507,230.893z"/>
				</g>
			</g>
			<g>
				<circle style="fill:#FFFFFF;" cx="342.288" cy="135.184" r="36.311"/>
				<g>
					<path style="fill:#523D48;" d="M345.492,111.12c0,0,13.325,9.586,13.421,9.682c0.096,0.096,1.055-1.534,0.959-1.917
						c-0.096-0.384-13.804-9.491-13.804-9.491L345.492,111.12z"/>
					<path style="fill:#523D48;" d="M322.643,153.971c0,0,15.818,10.641,15.914,10.737c0.096,0.096,1.438-1.534,1.342-1.917
						c-0.096-0.383-15.498-10.353-15.498-10.353L322.643,153.971z"/>
					<path style="fill:#523D48;" d="M341.913,116.105c0,0,13.325,9.586,13.421,9.682c0.096,0.096,1.055-1.534,0.959-1.917
						c-0.096-0.383-13.804-9.49-13.804-9.49L341.913,116.105z"/>
					<path style="fill:#523D48;" d="M327.437,148.124c0,0,13.325,9.586,13.421,9.682c0.096,0.096,1.055-1.534,0.959-1.917
						c-0.096-0.383-13.804-9.49-13.804-9.49L327.437,148.124z"/>
					<path style="fill:#523D48;" d="M338.679,121.936c0,0,12.755,7.624,12.859,7.71c0.104,0.086,1.5-1.457,1.368-1.83
						c-0.132-0.373-13.841-7.907-13.841-7.907L338.679,121.936z"/>
					<path style="fill:#523D48;" d="M330.914,142.451c0,0,12.755,7.624,12.859,7.71c0.104,0.087,1.499-1.457,1.368-1.83
						c-0.132-0.373-13.841-7.907-13.841-7.907L330.914,142.451z"/>
					<path style="fill:#DA5043;" d="M349.773,108.18c0,0-7.669,5.88-8.18,16.105c-0.511,10.225,9.714,32.721-1.023,43.714
						c-5.113-2.812-5.113-2.812-5.113-2.812s7.669-4.09,5.624-22.24c-2.045-18.15-7.413-29.654,3.579-38.601
						C347.217,105.879,349.773,108.18,349.773,108.18z"/>
					<path style="fill:#66C8CF;" d="M322.421,158.796l-4.601-2.684c0,0,0-6.519,9.586-13.549s14.443-7.413,21.985-12.91
						c7.541-5.496,9.331-12.143,9.331-17.128c5.368,0.639,5.368,0.639,5.368,0.639s-2.045,12.143-16.361,20.323
						C333.413,141.668,326.638,145.886,322.421,158.796z"/>
				</g>
			</g>
			<g>
				
					<ellipse transform="matrix(0.2275 -0.9738 0.9738 0.2275 140.2542 526.8807)" style="fill:#FFFFFF;" cx="402.191" cy="175.046" rx="23.624" ry="23.624"/>
				<g>
					<g>
						<path style="fill:#DA5043;" d="M410.943,181.372c-0.065,3.57-2.354,6.438-5.361,7.78c-3.938,1.76-9.096,0.901-12.087-4.425
							c-5.088-9.065,5.529-21.696,7.746-22.401c0.084-0.027,0.153-0.038,0.211-0.031
							C403.082,162.487,411.134,171.049,410.943,181.372z"/>
						<path style="fill:#C13B32;" d="M405.582,189.152c-3.938,1.76-9.096,0.901-12.087-4.425
							c-5.088-9.065,5.529-21.696,7.746-22.401c-1.25,1.361-7.558,8.911-4.421,19.782
							C398.074,186.449,401.843,188.358,405.582,189.152z"/>
						<polygon style="fill:#FFFFFF;" points="398.672,179.503 398.96,181.156 401.228,181.084 401.332,183.625 403.01,183.673 
							402.762,180.829 405.119,180.821 404.951,179.071 402.571,179.295 402.291,176.387 400.589,176.483 400.877,179.503 						"/>
					</g>
				</g>
			</g>
			<g>
				<circle style="fill:#FFFFFF;" cx="379.27" cy="239.764" r="27.481"/>
				<g>
					<path style="fill:#D4DFEF;" d="M372.684,227.684c0,0-2.876-2.109-8.532,0.096c-5.656,2.205-6.332,8.525-4.218,12.462
						c2.78,5.177,6.073,5.973,10.737,9.97c4.026,3.451,8.244,13.133,12.558,11.695c2.639-0.88-5.081-13.517-1.438-15.434
						c3.643-1.917,9.874,11.695,13.325,9.203c2.149-1.552-2.588-10.928-3.93-15.434c-1.204-4.042,2.301-12.75-2.588-18.597
						C383.708,215.797,374.122,218.768,372.684,227.684z"/>
					<path style="fill:#FFFFFF;" d="M374.697,231.806c0,0-5.113-2.221-7.957,0.192c-3.163,2.684-3.068,4.985-1.725,8.244
						c1.114,2.706,6.902,5.944,8.915,8.532c2.013,2.588,3.15,6.238,4.985,5.272c1.821-0.959-1.848-9.486,0.959-11.504
						c3.068-2.205,9.011,6.806,10.161,5.943c1.41-1.057-0.863-4.793-1.342-8.244c-0.479-3.451,1.055-12.654-4.026-16.297
						C381.66,221.789,374.505,223.466,374.697,231.806z"/>
					<path style="fill:#DA5043;" d="M376.566,235.113c-4.026-1.102-5.704-1.007-7.621,1.486c-1.917,2.492-0.02,5.775,2.109,7.286
						c2.972,2.109,5.416,5.32,6.087,5.177c1.365-0.292-0.623-7.621,1.869-8.963c2.492-1.342,6.914,3.797,7.813,3.451
						c1.246-0.479,0.24-2.54-0.431-6.279c-0.671-3.739-0.163-6.635-2.828-7.669C380.353,228.355,376.758,229.409,376.566,235.113z"
						/>
					<path style="fill:#EC6C66;" d="M377.541,236.968c-1.905-0.466-3.344-0.544-4.471,0.078c-1.127,0.622-2.099,1.983-1.633,3.344
						c0.466,1.361,3.188,4.046,4.482,5.197c0.544,0.544,0.327-1.499,0.36-2.612c0.072-2.445,0.657-3.937,1.821-4.53
						c2.138-1.089,6.783,2.378,7.573,2.66c0.544,0.194-0.672-2.658-0.983-4.601c-0.203-1.269-0.773-2.956-2.484-3.967
						C380.572,231.57,377.775,232.031,377.541,236.968z"/>
				</g>
			</g>
		</g>
		<g>
			<g>
				<path style="fill:#4BA3A5;" d="M240.809,171.515c0,0-0.256-2.685,1.278-4.155c1.534-1.47,25.883-1.917,27.673,0.831
					c1.789,2.748,0.128,5.049,0.128,5.049S245.985,178.802,240.809,171.515z"/>
				<g>
					<g>
						<g>
							<path style="fill:#F1F4F9;" d="M319.8,325.644c0,0-89.536,0-141.302,0c-4.985-43.33,1.15-112.927,4.41-123.472
								c3.739-3.869,21.228-11.178,31.704-15.33c4.571-1.81,7.807-3.018,7.984-3.075l61.736-0.192
								c0.744,0.295,3.888,1.461,8.026,3.118c6.967,2.788,16.757,6.96,22.65,10.687C334.371,221.153,319.8,325.644,319.8,325.644z"
								/>
							<path style="fill:#D4DFEF;" d="M195.561,300.482c0,0-5.368-50.232-1.15-69.213c5.368,9.011,7.094,42.18,7.094,42.18
								s5.177-16.297,6.519-14.955s-1.917,25.116-1.917,25.116s12.846-11.12,13.613-9.97c0.767,1.15-8.819,14.379-8.819,14.379
								s31.443,0.959,33.744,8.628C223.361,304.7,195.561,300.482,195.561,300.482z"/>
							<path style="fill:#D4DFEF;" d="M310.469,223.28c0,0-6.391,53.172-8.692,58.285c-4.857-14.571-10.481-19.684-10.481-15.594
								c0,4.09,4.346,19.684,4.346,19.684s-9.97-9.203-12.271-8.18c-2.301,1.022,6.135,10.737,6.135,10.737
								s-32.21,17.128-32.21,28.887c40.646-0.511,57.518-5.624,57.262-6.647C314.304,309.43,319.161,242.709,310.469,223.28z"/>
						</g>
						<g>
							<g>
								<path style="fill:#D4DFEF;" d="M304.891,230.632c-9.743,28.947-28.517,52.449-52.537,66.399
									c-37.778-24.453-47.916-65.252-47.916-65.252l3.578-3.865c-0.115,0.05-1.986,0.936-5.871,3.436
									c-2.565-22.286,10.909-42.283,12.466-44.507c4.571-1.81,7.807-3.018,7.984-3.075l61.736-0.192
									c0.744,0.295,3.888,1.461,8.026,3.118c10.71,16.607,11.96,40.642,11.96,40.642l-4.44,0.717
									C299.876,228.052,302.169,229.056,304.891,230.632z"/>
								<g>
									<path style="fill:#F1F4F9;" d="M219.207,219.446v7.413l-8.947,0.511c0,0,1.022,11.504,10.225,29.398
										c9.203,17.895,31.102,40.262,31.869,40.262c0.767,0-14.486-84.487-14.486-84.487L219.207,219.446z"/>
									<path style="fill:#F1F4F9;" d="M240.809,165.507c0,0-21.473,9.011-24.541,17.255c-3.068,8.244-10.928,23.199-10.737,42.947
										c5.944-2.109,10.545-4.985,12.846-4.218c2.301,0.767,12.271,5.56,12.271,5.56L240.809,165.507z"/>
								</g>
								<g>
									<path style="fill:#F1F4F9;" d="M287.206,218.934c0,0-0.256,7.669,1.278,8.692c2.812,1.023,9.714,2.301,9.714,2.301
										s-13.549,29.909-20.195,40.646c-6.647,10.737-25.905,27.736-25.649,26.458c0.256-1.278,23.093-82.186,23.093-82.186
										L287.206,218.934z"/>
									<path style="fill:#F1F4F9;" d="M276.214,226.859c0,0,6.902-4.857,9.458-5.368c2.556-0.511,13.549,3.834,13.549,3.834
										s-4.601-40.39-11.503-49.082c-6.902-8.692-15.594-12.27-18.022-11.759C267.267,164.995,276.214,226.859,276.214,226.859z"
										/>
								</g>
							</g>
							<path style="fill:#66C8CF;" d="M280.504,211.513c-2.339,18.736-5.062,44.914-12.57,60.766
								c-0.219,0.464-0.441,0.916-0.667,1.361c-2.799,5.476-14.912,23.391-14.912,23.391s-7.201-7.301-13.858-19.717
								c-3.451-6.442-6.76-14.261-8.839-23.149c-3.739-15.99-4.578-66.989-1.925-72.53c0.74-1.545,1.798-2.941,2.941-4.149
								c2.945-3.129,6.453-5.008,6.453-5.008c12.052-10.361,39.281,0.725,41.206,3.616c0.196,0.292,0.399,0.69,0.602,1.193
								C280.745,181.727,282.666,194.189,280.504,211.513z"/>
							<path style="fill:#4BA3A5;" d="M267.267,206.536c-1.277-11.76-5.878-17.512-7.796-18.022s-4.732,4.475-4.732,4.475
								s-0.767-3.708-4.985-4.091c-3.194,1.791-4.344,8.179-6.262,15.338c-12.37-8.493-13.271-20.649-12.819-26.75
								c2.945-3.129,6.453-5.008,6.453-5.008c12.052-10.361,39.281,0.725,41.206,3.616c0.196,0.292,0.399,0.69,0.602,1.193
								C279.783,186.278,274.664,198.675,267.267,206.536z"/>
							<g>
								<path style="fill:#523D48;" d="M267.934,272.279c-0.219,0.464-0.441,0.916-0.667,1.361
									c-2.799,5.476-14.912,23.391-14.912,23.391s-7.201-7.301-13.858-19.717c2.458-39.143,9.306-69.186,12.025-79.9
									c0.706-2.78,1.131-4.26,1.131-4.26s3.041-0.702,6.082-0.468C260.748,206.728,264.583,238.363,267.934,272.279z"/>
								<path style="fill:#3A2736;" d="M267.934,272.279c-0.219,0.464-0.441,0.916-0.667,1.361
									c-2.799,5.476-14.912,23.391-14.912,23.391s6.477-17.639,7.243-23.774c-0.192-9.011-3.068-53.875-4.601-74.965
									c-1.323,0.33-3.156-0.292-4.475-0.878c0.706-2.78,1.131-4.26,1.131-4.26s3.041-0.702,6.082-0.468
									C260.748,206.728,264.583,238.363,267.934,272.279z"/>
								<path style="fill:#523D48;" d="M261.902,190.151c-1.208,1.979-2.446,3.666-2.987,4.13c-1.265,1.081-4.877,2.347-8.854,0.36
									c-1.028-0.567-1.967-1.614-2.784-2.838c-2.059-3.075-3.348-7.255-3.363-7.646c-0.18-4.337,8.493-9.759,11.569-8.674
									c3.072,1.085,9.034,4.881,9.395,7.408C265.085,184.342,263.517,187.505,261.902,190.151z"/>
								<path style="fill:#3A2736;" d="M261.902,190.151c-0.882-1.193-2.761-3.627-3.838-4.13c-1.438-0.671-2.588,2.684-2.588,2.684
									s-1.342-2.397-3.163-2.588c-1.599-0.169-4.375,4.529-5.035,5.687c-2.059-3.075-3.348-7.255-3.363-7.646
									c-0.18-4.337,8.493-9.759,11.569-8.674c3.072,1.085,9.034,4.881,9.395,7.408
									C265.085,184.342,263.517,187.505,261.902,190.151z"/>
							</g>
						</g>
						<g>
							<polygon style="fill:#F1F4F9;" points="336.545,325.472 208.215,325.472 221.252,307.894 275.17,305.601 305.355,304.317 
															"/>
							<path style="fill:#D4DFEF;" d="M279.146,325.472h-70.931l13.037-17.577l53.917-2.293
								C276.865,311.744,278.433,318.742,279.146,325.472z"/>
							<g>
								<path style="fill:#F1F4F9;" d="M336.672,325.407h-16.998c0,0-2.301-4.122-14.061-22.018
									c5.368-12.78,4.091-108.901,4.091-108.901s12.781,5.882,23.517,17.386C351.627,272.97,336.672,325.407,336.672,325.407z"/>
								<path style="fill:#D4DFEF;" d="M336.672,325.407h-13.823c17.735-42.437,10.372-113.533,10.372-113.533
									C351.627,272.97,336.672,325.407,336.672,325.407z"/>
							</g>
						</g>
						<g>
							<path style="fill:#F1F4F9;" d="M202.337,326.22c0,0,0,0-23.46,0h-12.842c-14.571-54.707,5.878-111.458,7.926-115.546
								c2.044-4.092,8.946-8.501,8.946-8.501c8.693-1.342,10.737,7.734,10.994,14.38C193.644,222.43,202.337,326.22,202.337,326.22z
								"/>
							<g>
								<path style="fill:#E4804E;" d="M229.549,302.349c-0.749-4.99-3.992-14.97-15.345-20.709
									c-11.353-5.739-29.941-0.25-30.44,0.624c-0.499,0.998,0.125,2.495,0.374,2.994c0.25,0.499,16.024-2.187,22.331,2.994
									c-6.238-0.499-11.852,1.996-16.966,5.24c3.243,6.113,6.113,9.98,6.113,9.98l13.348,0.624c0,0,5.489,8.483,11.976,8.608
									C227.428,312.828,230.297,307.339,229.549,302.349z"/>
								<path style="fill:#DE523C;" d="M207.246,287.884c-2.141-2.586-5.948-3.014-9.102-3.158
									c-4.505-0.205-9.205-0.359-13.699,0.011c-0.226,0.018-0.32,0.393-0.058,0.43c3.944,0.551,7.986,0.532,11.96,0.749
									c3.801,0.207,7.019,0.901,10.472,2.523C207.187,288.612,207.506,288.198,207.246,287.884z"/>
								<path style="fill:#DE523C;" d="M206.959,287.549c-3.3,0.103-6.581,0.714-9.698,1.801c-2.833,0.988-5.961,2.317-8.085,4.494
									c-0.137,0.14,0,0.441,0.207,0.355c2.784-1.145,5.318-2.724,8.199-3.685c3.047-1.017,6.176-1.538,9.377-1.725
									C207.75,288.743,207.763,287.524,206.959,287.549z"/>
								<polygon style="fill:#DE523C;" points="189.383,294.199 192.781,299.175 195.849,298.6 190.384,293.04 								"/>
								<path style="fill:#DE523C;" d="M192.11,296.395c0,0,7.158-2.94,12.91-2.429c-6.391,2.045-11.887,4.346-11.887,4.346
									L192.11,296.395z"/>
							</g>
							<path style="fill:#D4DFEF;" d="M178.877,326.22h-12.842c-14.571-54.707,5.878-111.458,7.926-115.546
								C173.961,210.674,160.579,282.069,178.877,326.22z"/>
						</g>
					</g>
					<g>
						<g>
							<g>
								<path style="fill:#E4804E;" d="M305.612,304.06c-1.656,0.464-3.282,0.92-4.878,1.361c-2.841,0.798-5.579,1.561-8.194,2.289
									c-18.574,5.184-31.025,8.62-31.025,8.62l-3.194-23.26c0.054-0.157,5.131-0.648,11.461-1.089
									c8.946-0.633,20.392-1.173,23.686-0.575c4.183,0.763,8.582,2.301,10.767,6.826
									C304.991,299.792,305.482,301.702,305.612,304.06z"/>
								<path style="fill:#D86A29;" d="M305.612,304.06c-1.656,0.464-3.282,0.92-4.878,1.361c-2.841,0.798-5.579,1.561-8.194,2.289
									c-18.574,5.184-31.025,8.62-31.025,8.62l-3.194-23.26c0.054-0.157,5.131-0.648,11.461-1.089
									c1.53,1.614,3.9,5.108,5.664,12.079c15.917-2.976,24.38-4.789,28.79-5.828C304.991,299.792,305.482,301.702,305.612,304.06z
									"/>
							</g>
							<g>
								<path style="fill:#523D48;" d="M300.735,305.421c-2.841,0.798-5.579,1.561-8.194,2.289
									c-0.138-1.315-0.253-2.443-0.253-2.627l7.573-2.876L300.735,305.421z"/>
								<g>
									<path style="fill:#523D48;" d="M295.412,290.198c0,0-3.579-1.022-7.541,1.917c-3.962,2.94-3.195,9.714,1.278,12.91
										c4.474,3.195,11.607,0.378,12.629-4.607C302.893,294.982,300.052,290.761,295.412,290.198z"/>
									<g>
										<g>
											<path style="fill:#F1F4F9;" d="M299.86,298.247c-0.383,3.321-2.147,4.789-4.153,5.368
												c-3.324,0.959-8.052-0.959-7.542-5.56c0.015-0.15,0.034-0.295,0.061-0.437c0.667-4.233,3.919-5.269,6.457-5.123
												c1.423,0.081,3.286,1.039,4.348,2.585C299.649,295.965,299.998,297.039,299.86,298.247z"/>
											<path style="fill:#D4DFEF;" d="M299.86,298.247c-0.383,3.321-2.147,4.789-4.153,5.368
												c-3.324,0.959-8.052-0.959-7.542-5.56c0.015-0.15,0.034-0.295,0.061-0.437c0.671,2.213,2.485,5.257,6.937,4.015
												c3.662-1.024,4.149-4.076,3.869-6.553C299.649,295.965,299.998,297.039,299.86,298.247z"/>
										</g>
										<g>
											<path style="fill:#523D48;" d="M294.171,299.815c0.392,0.003,0.634-0.439,0.48-0.8c-0.572-1.343-2.264-5.238-2.578-5.05
												c-0.379,0.227,1.213,5.231,1.725,5.686C293.853,299.701,294.103,299.814,294.171,299.815z"/>
											<path style="fill:#523D48;" d="M293.892,299.605c0.097,0.286,0.602,0.222,0.804,0.026
												c0.752-0.727,2.841-2.979,2.636-3.164c-0.247-0.223-2.972,2.025-3.367,2.588
												C293.809,299.308,293.875,299.556,293.892,299.605z"/>
										</g>
									</g>
								</g>
							</g>
						</g>
						<g>
							<path style="fill:#F1F4F9;" d="M267.459,326.028c-19.173,0-101.423,0.192-101.423,0.192s-2.301-17.447,11.12-21.857
								s83.018-15.146,85.318-14.379c0.87,3.091,1.603,6.35,2.213,9.609C266.772,310.678,267.459,321.729,267.459,326.028z"/>
							<path style="fill:#D4DFEF;" d="M264.686,299.593c-31.516-0.445-87.531,4.77-87.531,4.77
								c13.421-4.41,83.018-15.146,85.318-14.379C263.344,293.074,264.077,296.333,264.686,299.593z"/>
						</g>
					</g>
				</g>
				<g>
					<g>
						<path style="fill:#523D48;" d="M296.026,116.297c0.358-0.365,5.241-6.263,5.241-12.143s0.895-23.391-27.481-24.797
							c-21.985-15.977-45.064-8.063-50.871-5.624c-6.391,2.684-9.331,9.075-8.18,18.15c0.534,4.215,1.917,11.248,13.037,26.458
							C251.034,131.635,290.018,122.432,296.026,116.297z"/>
					</g>
					<g>
						<g>
							<path style="fill:#66C8CF;" d="M235.568,169.213c-2.633,5.266-3.195,18.534,5.624,28.12
								c3.195-7.158,6.436-13.071,9.586-14.571c2.013-0.959,4.218,2.173,4.218,2.173s2.173-3.835,4.09-2.812
								c1.917,1.023,10.098,5.496,10.865,15.338c5.624-5.368,6.647-15.594,6.007-22.24c-0.639-6.647-4.346-9.203-6.263-10.737
								c-1.917-1.534-10.992-1.79-10.992-1.79S239.914,160.522,235.568,169.213z"/>
							<g>
								<path style="fill:#D86A29;" d="M269.058,174.583c-2.174,2.17-7.799,6.135-15.212,5.622
									c-7.412-0.51-12.853-5.368-13.037-8.689c-0.127-2.301,4.602-2.431,4.602-2.431s-0.272-3.44-0.56-6.818
									c-0.234-2.73-0.475-5.422-0.59-6.22c-0.257-1.787,22.881-7.029,22.881-7.029s-0.265,6.062-0.46,12.627
									c-0.077,2.6-0.146,5.284-0.18,7.696C270.461,170.108,271.228,172.409,269.058,174.583z"/>
								<path style="fill:#DE523C;" d="M267.14,149.018c0,0-0.265,6.062-0.46,12.627c-2.615,0.87-6.361,1.752-10.821,1.752
									c-4.624,0-8.432-0.579-11.009-1.131c-0.234-2.73-0.475-5.422-0.59-6.22C244.003,154.26,267.14,149.018,267.14,149.018z"/>
							</g>
						</g>
						<g>
							<g>
								<path style="fill:#E4804E;" d="M227.1,126.586c0,0-2.109,3.643-6.231,3.163c-4.122-0.479-7.286-3.355-9.586-8.052
									c-2.301-4.697-2.013-11.695,1.342-13.9c3.355-2.205,8.053-1.821,11.024,2.109c2.972,3.93,4.985,8.819,4.985,8.819
									L227.1,126.586z"/>
								<path style="fill:#DE523C;" d="M213.008,115.226c0.048-0.24,0.575-4.554,3.355-5.512c2.78-0.959,8.484,6.662,10.209,10.161
									c0,1.821,0.096,2.109,0.096,2.109s-2.445-3.355-4.122-3.116s-2.588,1.869-2.061,3.739c0.527,1.869,3.307,3.211,6.279,2.78
									c-0.671,1.534-0.671,1.534-0.671,1.534s-6.423,1.054-8.053-3.068c-1.63-4.122,1.246-6.806,4.458-7.238
									c-3.882-4.074-4.388-4.597-5.943-4.314C214.973,112.59,213.008,115.226,213.008,115.226z"/>
							</g>
							<g>
								<path style="fill:#E4804E;" d="M288.357,110.289c-0.625,3.589-1.545,7.799-2.715,12.171
									c-3.148,11.73-8.099,24.595-13.965,29.626c-8.052,6.902-22.624,6.71-28.375,6.519c-5.752-0.192-17.639,0.383-19.556-11.504
									c-0.97-8.827,1.384-23.632,3.639-34.925c1.76-8.823,3.455-15.499,3.455-15.499c5.56-18.214,29.718-19.748,42.563-14.188
									C286.248,88.049,287.782,98.594,288.357,110.289z"/>
								<path style="fill:#D86A29;" d="M285.642,122.46c0.261-7.113-2.174-12.857-6.615-14.728c-4.858-2.044-6.392-4.088-9.97-9.97
									c-5.115,6.392-17.386,5.625-28.376,5.625c-10.994,0-13.279,8.789-13.279,8.789h-0.019c1.76-8.823,3.455-15.499,3.455-15.499
									c5.56-18.214,29.718-19.748,42.563-14.188c12.846,5.56,14.379,16.105,14.955,27.8
									C287.732,113.879,286.811,118.089,285.642,122.46z"/>
								<path style="fill:#D86A29;" d="M254.485,145.311c-1.25-0.978-7.541-1.086-8.372,0.511c-0.831,1.598,0.383,2.876,2.429,3.387
									c2.045,0.511,5.432,0.192,6.327-0.639C255.763,147.74,255.955,146.462,254.485,145.311z"/>
							</g>
							<g>
								<path style="fill:#523D48;" d="M228.219,106.711c0,0,2.716-6.295,6.934-8.404c4.218-2.109,17.255-0.383,24.829-2.013
									c7.573-1.63,12.75-8.244,12.75-8.244s-1.246,5.656,4.697,10.257c5.944,4.601,11.12,8.915,9.203,20.035
									c6.998-12.271,7.957-30.005-11.408-36.236C257.201,72.903,226.301,79.006,228.219,106.711z"/>
								<path style="fill:#64505C;" d="M277.492,84.981c0,0-1.406,5.113,2.045,9.203c3.451,4.09,9.458,6.007,10.737,10.864
									c1.278,4.857,0.892,7.838-0.256,11.248c5.241-2.301,6.647-2.94,6.647-2.94s3.707-12.654-1.79-21.601
									C289.379,82.809,277.492,84.981,277.492,84.981z"/>
								<path style="fill:#64505C;" d="M270.471,82.077c0,0-19.337-8.675-33.975-6.506c-14.638,2.169-20.06,18.072-11.205,31.807
									c-1.626-10.12,5.06-14.819,13.554-15.903C247.339,90.39,263.062,93.824,270.471,82.077z"/>
							</g>
							<g>
								<path style="fill:#E4804E;" d="M285.002,119.013c0,0,3.93-6.806,10.066-7.573c6.135-0.767,7.861,7.861,5.464,13.229
									c-2.397,5.368-8.148,9.011-12.366,8.053c-4.218-0.959-5.848-4.122-5.848-4.122L285.002,119.013z"/>
								<path style="fill:#DE523C;" d="M297.853,122.763c0,0,1.809-6.3-1.622-8.171c-3.431-1.871-11.415,5.988-12.226,9.045
									c-0.25,1.185-0.25,1.185-0.25,1.185s2.62-3.119,5.614-3.555c2.994-0.437,3.244,1.871,1.747,3.243
									c-1.497,1.372-6.986,0.811-6.986,0.811l-0.561,1.684c0,0,9.044,2.058,10.853-2.183c1.809-4.241-1.871-6.362-5.551-5.115
									c3.306-2.62,5.469-2.46,6.362-2.183C297.042,118.085,297.853,122.763,297.853,122.763z"/>
							</g>
							<g>
								<g>
									<g>
										<path style="fill:#523D48;" d="M275.255,110.673l13.932,2.365l-1.214,2.556c0,0-6.966-0.383-8.372-1.087
											s-2.173-2.045-4.026-2.556C275.255,110.673,275.255,110.673,275.255,110.673z"/>
										<g>
											<path style="fill:#F1F4F9;" d="M255.38,112.878c0,0,0.189,5.746,3.065,8.367c3.579,3.196,11.975,2.439,14.489,0.37
												c2.003-1.65,2.961-8.257,2.642-9.663c-0.32-1.406-0.767-2.365-2.94-2.748c-2.173-0.383-13.708,0.032-15.115,0.288
												C256.569,109.664,255.22,110.609,255.38,112.878z"/>
											<path style="fill:#F1F4F9;" d="M247.199,113.085c0,0-0.185,5.633-3.004,8.202c-3.508,3.132-11.739,2.391-14.203,0.362
												c-1.964-1.617-2.903-8.094-2.589-9.472c0.313-1.378,0.752-2.318,2.882-2.694c2.13-0.376,13.438,0.031,14.816,0.282
												C246.033,109.935,247.355,110.861,247.199,113.085z"/>
											<path style="fill:#523D48;" d="M269.078,116.045c0.708-2.228-1.689-4.279-3.68-3.053
												c-0.273,0.168-0.518,0.387-0.717,0.651c-0.783,1.04-0.656,2.938,0.498,3.681c0.53,0.341,1.201,0.418,1.821,0.303
												C268.086,117.427,268.806,116.902,269.078,116.045z"/>
											<path style="fill:#523D48;" d="M241.438,115.854c0.708-2.228-1.689-4.279-3.68-3.053
												c-0.273,0.168-0.518,0.387-0.717,0.651c-0.783,1.04-0.656,2.938,0.498,3.681c0.53,0.341,1.201,0.418,1.821,0.303
												C240.445,117.235,241.165,116.711,241.438,115.854z"/>
											<path style="fill:#523D48;" d="M227.867,117.287c0.016,0.1-0.511-0.447-0.863-1.566s-1.191-4.681-0.096-5.976
												c0.703-0.831,2.109-1.088,3.387-1.118c1.342-0.032,14.475-0.352,16.265,0.447c1.789,0.799,1.566,2.908,1.502,4.058
												c-0.064,1.15-0.767,3.483-1.63,4.218c0.16-2.652,0.129-5.303-0.479-6.519c-0.479-0.959-9.203-0.831-14.955-0.671
												C228.794,110.353,227.004,112.079,227.867,117.287z"/>
											<path style="fill:#523D48;" d="M256.083,117.128c0,0-0.767-4.969,1.31-6.071c1.566-0.831,14.316-0.383,15.785-0.287
												c1.47,0.096,2.365,3.579,2.045,5.624c0.959-2.461,1.566-5.56-0.192-6.966c-1.758-1.406-18.406-1.438-19.332-0.224
												C255.136,109.941,254.166,113.101,256.083,117.128z"/>
											<path style="fill:#523D48;" d="M247.391,114.252c0,0,2.109-2.493,3.802-2.365c1.694,0.128,4.218,2.428,4.218,2.428
												l0.415-4.25c0,0-5.336,0.575-8.947,0.096C247.231,112.271,247.391,114.252,247.391,114.252z"/>
											<path style="fill:#D4DFEF;" d="M230.2,111.248c0.29-1.014-1.598,1.662-1.726,2.94c-0.128,1.278,0.447,5.56,2.045,6.71
												c1.598,1.15,4.026,2.173,8.564,1.406c4.538-0.767,5.688-3.068,6.135-4.346c-1.853,1.598-3.451,2.62-7.861,2.62
												c-4.41,0-5.542-0.787-6.327-1.981C229.561,116.361,229.688,113.037,230.2,111.248z"/>
											<path style="fill:#D4DFEF;" d="M258.064,113.453c0,0-0.096,5.464,2.492,7.573s9.395,1.15,11.312-0.096
												c2.013-1.534,2.301-3.739,2.301-3.739s-1.726,3.164-5.081,3.355C265.733,120.739,261.227,121.601,258.064,113.453z"/>
										</g>
									</g>
									<g>
										<path style="fill:#523D48;" d="M258.703,108.117c0,0,3.068-3.323,6.966-2.365c3.898,0.959,4.985,1.726,4.985,1.726
											s-1.726-3.323-5.816-4.474C260.748,101.854,258.703,108.117,258.703,108.117z"/>
										<path style="fill:#523D48;" d="M245.666,107.925c0,0-3.068-2.301-6.071-2.62c-4.408-0.469-5.432,1.214-5.432,1.214
											s1.406-3.387,5.304-4.026C243.365,101.854,245.666,107.925,245.666,107.925z"/>
									</g>
								</g>
								<g>
									<path style="fill:#DE523C;" d="M239.513,138.661c0,0,5.183,3.323,12.597,2.428s10.091-6.583,10.091-6.583
										s-6.646,3.387-12.143,4.218C244.562,139.555,239.513,138.661,239.513,138.661z"/>
									<path style="fill:#DE523C;" d="M251.013,114.188c0,0,2.083,6.023,0.256,12.009c-2.109,6.908-6.519,7.355-6.519,7.355
										c3.039-4.17,2.799-3.928,3.962-7.541C250.097,121.711,251.013,114.188,251.013,114.188z"/>
								</g>
							</g>
						</g>
					</g>
				</g>
			</g>
		</g>
		<g>
			<polygon style="fill:#FFFFFF;" points="138.351,104.31 138.188,100.727 131.563,100.857 131.431,94.133 128.663,94.458 
				128.471,100.918 121.58,101.053 121.905,103.821 128.379,104.013 128.174,110.904 131.757,110.741 131.627,104.11 			"/>
			<polygon style="fill:#FFFFFF;" points="406.666,129.504 406.503,125.921 399.878,126.051 399.746,119.327 396.978,119.652 
				396.786,126.112 389.895,126.247 390.221,129.015 396.694,129.207 396.489,136.098 400.072,135.935 399.942,129.304 			"/>
			<polygon style="fill:#FFFFFF;" points="413.168,213.027 413.062,210.68 408.719,210.765 408.633,206.358 406.819,206.571 
				406.693,210.805 402.177,210.893 402.39,212.707 406.633,212.833 406.499,217.349 408.846,217.243 408.761,212.897 			"/>
			<polygon style="fill:#FFFFFF;" points="93.909,304.615 93.802,302.267 89.46,302.352 89.374,297.945 87.56,298.158 
				87.434,302.392 82.918,302.48 83.131,304.294 87.374,304.421 87.24,308.936 89.587,308.83 89.502,304.484 			"/>
			<polygon style="fill:#FFFFFF;" points="361.785,278.598 361.679,276.25 357.337,276.336 357.25,271.928 355.436,272.142 
				355.31,276.375 350.794,276.464 351.007,278.278 355.25,278.404 355.116,282.92 357.464,282.813 357.378,278.467 			"/>
			<polygon style="fill:#FFFFFF;" points="411.637,293.917 411.53,291.569 407.188,291.654 407.102,287.247 405.288,287.461 
				405.162,291.694 400.646,291.783 400.859,293.597 405.102,293.723 404.967,298.239 407.315,298.132 407.23,293.786 			"/>
			<polygon style="fill:#FFFFFF;" points="145.75,289.656 145.588,286.073 138.962,286.203 138.83,279.479 136.062,279.805 
				135.87,286.264 128.979,286.399 129.305,289.167 135.778,289.359 135.574,296.25 139.156,296.087 139.026,289.456 			"/>
			<polygon style="fill:#FFFFFF;" points="77.076,208.591 76.914,205.009 70.288,205.139 70.156,198.415 67.388,198.74 
				67.196,205.2 60.305,205.335 60.631,208.103 67.104,208.295 66.9,215.186 70.482,215.023 70.352,208.392 			"/>
			<polygon style="fill:#FFFFFF;" points="160.785,188.484 160.68,186.174 156.408,186.258 156.323,181.922 154.538,182.132 
				154.414,186.297 149.97,186.384 150.18,188.169 154.355,188.293 154.223,192.737 156.533,192.632 156.449,188.356 			"/>
			<polygon style="fill:#FFFFFF;" points="358.25,191.816 358.145,189.506 353.873,189.59 353.788,185.253 352.003,185.463 
				351.879,189.629 347.435,189.716 347.645,191.501 351.82,191.625 351.688,196.069 353.998,195.964 353.914,191.687 			"/>
			<polygon style="fill:#FFFFFF;" points="322.337,82.792 322.232,80.482 317.959,80.566 317.874,76.23 316.089,76.44 
				315.965,80.605 311.521,80.692 311.732,82.477 315.906,82.601 315.774,87.045 318.084,86.94 318,82.664 			"/>
			<polygon style="fill:#FFFFFF;" points="204.157,92.53 204.052,90.219 199.779,90.303 199.694,85.967 197.909,86.177 
				197.785,90.342 193.341,90.429 193.551,92.215 197.726,92.339 197.594,96.782 199.904,96.677 199.82,92.401 			"/>
		</g>
	</g>
</g>
<g id="DESIGNED_BY_FREEPIK">
	<g>
		<g>
			<path style="fill:#FFFFFF;" d="M176.349,459.163c-0.14-0.17-0.34-0.25-0.611-0.249c-0.27,0-0.47,0.091-0.619,0.27
				c-0.14,0.191-0.209,0.46-0.209,0.82l0.003,2.6c-0.331-0.359-0.671-0.629-1.021-0.808c-0.35-0.169-0.77-0.259-1.281-0.258
				c-0.87,0.001-1.58,0.312-2.119,0.923c-0.529,0.621-0.798,1.471-0.796,2.571c0.001,0.52,0.072,1,0.202,1.449
				c0.14,0.45,0.331,0.84,0.601,1.169c0.261,0.33,0.571,0.579,0.931,0.759c0.35,0.179,0.74,0.269,1.16,0.268
				c0.32,0,0.62-0.051,0.88-0.141c0.27-0.08,0.52-0.211,0.749-0.381c0.23-0.17,0.46-0.391,0.699-0.661l0,0.17
				c0.001,0.32,0.08,0.57,0.231,0.75c0.16,0.17,0.36,0.259,0.6,0.259c0.24,0,0.44-0.09,0.6-0.251c0.15-0.17,0.229-0.42,0.229-0.76
				l-0.011-7.75C176.569,459.583,176.499,459.333,176.349,459.163z M174.589,466.336c-0.149,0.33-0.349,0.581-0.609,0.741
				c-0.25,0.161-0.54,0.241-0.84,0.242c-0.31,0-0.59-0.09-0.851-0.26c-0.26-0.17-0.46-0.419-0.611-0.749
				c-0.141-0.34-0.221-0.739-0.221-1.219c-0.001-0.45,0.069-0.85,0.208-1.191c0.139-0.34,0.339-0.6,0.589-0.78
				c0.25-0.181,0.54-0.281,0.859-0.282c0.31,0,0.6,0.089,0.861,0.268c0.26,0.18,0.46,0.44,0.611,0.77
				c0.16,0.34,0.231,0.74,0.232,1.21C174.818,465.585,174.748,465.996,174.589,466.336z"/>
			<path style="fill:#FFFFFF;" d="M183.408,466.243c-0.17,0-0.3,0.04-0.389,0.121c-0.22,0.2-0.4,0.371-0.53,0.491
				c-0.14,0.12-0.29,0.23-0.45,0.34c-0.17,0.1-0.329,0.18-0.509,0.23c-0.17,0.051-0.36,0.071-0.57,0.071
				c-0.32,0-0.6-0.079-0.861-0.228c-0.26-0.15-0.47-0.38-0.631-0.69c-0.161-0.3-0.241-0.66-0.241-1.049l3.44-0.005
				c0.46-0.001,0.81-0.071,1.07-0.202c0.25-0.13,0.379-0.42,0.379-0.861c-0.001-0.48-0.131-0.939-0.372-1.399
				c-0.241-0.46-0.611-0.839-1.111-1.128c-0.49-0.289-1.081-0.429-1.76-0.428c-0.53,0.001-1.01,0.081-1.44,0.252
				c-0.44,0.171-0.8,0.421-1.099,0.732c-0.29,0.321-0.519,0.701-0.668,1.15c-0.16,0.441-0.239,0.921-0.238,1.441
				c0.001,1.1,0.322,1.98,0.943,2.619c0.631,0.639,1.512,0.968,2.641,0.966c0.49-0.001,0.93-0.072,1.31-0.202
				c0.38-0.13,0.69-0.291,0.939-0.481c0.25-0.201,0.439-0.401,0.569-0.611c0.12-0.22,0.18-0.4,0.179-0.56
				c0-0.181-0.05-0.32-0.161-0.42C183.729,466.293,183.589,466.243,183.408,466.243z M179.734,463.178
				c0.28-0.3,0.64-0.45,1.079-0.451c0.46-0.001,0.83,0.148,1.111,0.448c0.281,0.3,0.441,0.749,0.492,1.35l-3.19,0.004
				C179.285,463.94,179.455,463.489,179.734,463.178z"/>
			<path style="fill:#FFFFFF;" d="M190.407,465.494c-0.18-0.25-0.44-0.469-0.791-0.648c-0.34-0.19-0.79-0.35-1.331-0.479
				c-0.46-0.109-0.82-0.209-1.08-0.279c-0.27-0.079-0.47-0.179-0.631-0.299c-0.15-0.109-0.23-0.269-0.231-0.45
				c0-0.199,0.1-0.369,0.309-0.51c0.22-0.13,0.48-0.201,0.8-0.201c0.31,0,0.55,0.05,0.73,0.159c0.18,0.1,0.34,0.24,0.47,0.41
				c0.16,0.2,0.311,0.36,0.431,0.459c0.13,0.1,0.28,0.16,0.46,0.159c0.25,0,0.45-0.071,0.58-0.201c0.14-0.13,0.199-0.29,0.199-0.49
				c0-0.189-0.06-0.38-0.191-0.569c-0.12-0.19-0.31-0.37-0.551-0.529c-0.24-0.16-0.54-0.28-0.911-0.379
				c-0.36-0.089-0.77-0.139-1.22-0.138c-0.58,0.001-1.08,0.091-1.49,0.281c-0.41,0.191-0.72,0.441-0.929,0.751
				c-0.209,0.311-0.309,0.651-0.308,1c0.001,0.391,0.111,0.73,0.341,1c0.23,0.27,0.531,0.49,0.911,0.649
				c0.38,0.16,0.87,0.319,1.48,0.468c0.53,0.129,0.92,0.269,1.15,0.409c0.24,0.139,0.351,0.37,0.351,0.669
				c0,0.21-0.11,0.38-0.329,0.541c-0.23,0.16-0.52,0.241-0.87,0.241c-0.43,0.001-0.78-0.079-1.03-0.229
				c-0.25-0.16-0.46-0.389-0.651-0.709c-0.08-0.16-0.18-0.29-0.28-0.38c-0.1-0.09-0.24-0.13-0.42-0.129
				c-0.21,0-0.39,0.071-0.52,0.201c-0.14,0.14-0.21,0.31-0.209,0.5c0,0.29,0.111,0.58,0.321,0.87
				c0.221,0.29,0.551,0.529,1.001,0.728c0.451,0.19,0.991,0.289,1.62,0.288c0.66-0.001,1.22-0.092,1.68-0.272
				c0.469-0.181,0.819-0.441,1.049-0.791c0.239-0.34,0.349-0.761,0.348-1.241C190.668,466.033,190.588,465.743,190.407,465.494z"/>
			<path style="fill:#FFFFFF;" d="M193.083,461.77c-0.17-0.18-0.38-0.269-0.641-0.269c-0.26,0-0.469,0.091-0.63,0.27
				c-0.16,0.17-0.24,0.43-0.239,0.781l0.007,5.029c0,0.341,0.081,0.6,0.241,0.79c0.16,0.18,0.37,0.28,0.63,0.279
				c0.26,0,0.47-0.091,0.64-0.27c0.17-0.181,0.249-0.451,0.249-0.801l-0.007-5.079C193.333,462.19,193.253,461.94,193.083,461.77z
				 M193.059,459.18c-0.17-0.139-0.37-0.219-0.6-0.219c-0.24,0-0.44,0.081-0.62,0.251c-0.18,0.159-0.27,0.36-0.269,0.61
				c0,0.28,0.091,0.49,0.261,0.64c0.18,0.149,0.391,0.219,0.63,0.219c0.24,0,0.44-0.071,0.61-0.221c0.17-0.16,0.26-0.37,0.259-0.641
				C193.33,459.54,193.239,459.33,193.059,459.18z"/>
			<path style="fill:#FFFFFF;" d="M200.862,461.819c-0.11-0.22-0.34-0.329-0.68-0.328c-0.23,0-0.43,0.091-0.58,0.251
				c-0.15,0.17-0.22,0.41-0.219,0.71l0,0.239c-0.311-0.409-0.651-0.709-1.021-0.898c-0.36-0.19-0.79-0.289-1.29-0.288
				c-0.42,0.001-0.8,0.081-1.15,0.231c-0.35,0.141-0.649,0.361-0.919,0.661c-0.26,0.29-0.469,0.651-0.608,1.071
				c-0.15,0.43-0.219,0.9-0.218,1.43c0.001,0.71,0.122,1.33,0.362,1.87c0.231,0.54,0.572,0.959,1.012,1.258
				c0.44,0.31,0.95,0.459,1.541,0.458c0.49-0.001,0.91-0.101,1.27-0.301c0.35-0.201,0.66-0.491,0.928-0.862
				c-0.009,0.57-0.018,0.99-0.038,1.25c-0.009,0.261-0.069,0.5-0.169,0.731c-0.099,0.231-0.279,0.401-0.529,0.531
				c-0.25,0.13-0.6,0.19-1.06,0.191c-0.22,0-0.42-0.019-0.59-0.059c-0.17-0.04-0.32-0.1-0.44-0.19
				c-0.12-0.08-0.24-0.179-0.341-0.299c-0.1-0.12-0.2-0.24-0.29-0.349c-0.19-0.23-0.42-0.339-0.68-0.339c-0.2,0-0.38,0.07-0.52,0.2
				c-0.15,0.141-0.22,0.311-0.22,0.531c0,0.28,0.131,0.55,0.381,0.82c0.261,0.269,0.631,0.488,1.101,0.659
				c0.48,0.169,1.02,0.249,1.631,0.248c0.66-0.001,1.21-0.062,1.65-0.202c0.45-0.13,0.81-0.331,1.079-0.612
				c0.28-0.27,0.48-0.621,0.599-1.041c0.12-0.42,0.189-0.92,0.188-1.51l-0.007-5.1C201.033,462.359,200.973,462.04,200.862,461.819z
				 M199.078,466.232c-0.159,0.311-0.369,0.551-0.629,0.701c-0.26,0.161-0.54,0.241-0.83,0.241c-0.49,0.001-0.9-0.178-1.211-0.548
				c-0.31-0.36-0.461-0.9-0.462-1.61c-0.001-0.71,0.148-1.25,0.448-1.63c0.299-0.38,0.699-0.581,1.209-0.582
				c0.51-0.001,0.93,0.199,1.241,0.598c0.321,0.4,0.481,0.959,0.482,1.68C199.328,465.532,199.238,465.912,199.078,466.232z"/>
			<path style="fill:#FFFFFF;" d="M208.384,463.329c-0.03-0.24-0.11-0.48-0.221-0.69c-0.181-0.369-0.451-0.649-0.822-0.858
				c-0.36-0.2-0.78-0.299-1.24-0.298c-0.48,0.001-0.9,0.101-1.27,0.292c-0.1,0.05-0.19,0.11-0.29,0.18
				c-0.25,0.18-0.49,0.421-0.719,0.721l0-0.22c0-0.21-0.041-0.391-0.111-0.53c-0.08-0.149-0.18-0.26-0.3-0.33
				c-0.13-0.069-0.27-0.109-0.421-0.109c-0.25,0-0.45,0.08-0.599,0.251c-0.15,0.159-0.22,0.409-0.219,0.75l0.007,5.079
				c0.001,0.341,0.081,0.6,0.251,0.79c0.16,0.18,0.371,0.28,0.621,0.28c0.26,0,0.48-0.091,0.64-0.271
				c0.17-0.181,0.249-0.451,0.249-0.801l-0.003-2.199c-0.001-0.721,0.038-1.21,0.128-1.471c0.12-0.33,0.309-0.581,0.559-0.77
				c0.259-0.191,0.549-0.281,0.859-0.281c0.48-0.001,0.8,0.149,0.961,0.459c0.16,0.31,0.241,0.75,0.242,1.33l0.004,2.93
				c0,0.341,0.091,0.601,0.251,0.79c0.16,0.18,0.37,0.28,0.64,0.28c0.25,0,0.46-0.091,0.62-0.271
				c0.17-0.181,0.249-0.451,0.249-0.801l-0.004-3.27C208.445,463.9,208.425,463.579,208.384,463.329z"/>
			<path style="fill:#FFFFFF;" d="M215.259,466.2c-0.17,0-0.29,0.04-0.38,0.121c-0.22,0.2-0.399,0.371-0.539,0.491
				c-0.14,0.12-0.29,0.23-0.45,0.34c-0.16,0.1-0.33,0.18-0.5,0.23c-0.17,0.051-0.35,0.071-0.55,0.071h-0.01c-0.01,0-0.01,0-0.02,0
				c-0.31,0-0.6-0.079-0.86-0.228c-0.26-0.15-0.47-0.38-0.621-0.69c-0.03-0.06-0.06-0.11-0.08-0.17v-0.01
				c-0.11-0.26-0.161-0.56-0.171-0.87l3.44-0.005c0.46-0.001,0.82-0.071,1.07-0.202c0.25-0.13,0.379-0.42,0.379-0.861
				c-0.001-0.479-0.121-0.939-0.372-1.399c-0.24-0.46-0.611-0.839-1.102-1.128c-0.49-0.289-1.08-0.429-1.77-0.428
				c-0.53,0.001-1.01,0.081-1.44,0.252c-0.429,0.171-0.799,0.421-1.089,0.732c-0.299,0.321-0.529,0.701-0.678,1.15
				c-0.15,0.441-0.229,0.921-0.229,1.441c0.001,1.1,0.313,1.98,0.944,2.619c0.62,0.639,1.501,0.968,2.631,0.966
				c0.49-0.001,0.93-0.072,1.31-0.202c0.01,0,0.03-0.01,0.04-0.01c0.36-0.13,0.659-0.291,0.909-0.471
				c0.25-0.201,0.43-0.401,0.559-0.611c0.12-0.22,0.189-0.4,0.189-0.56c0-0.181-0.061-0.32-0.171-0.42
				C215.589,466.249,215.439,466.2,215.259,466.2z M211.594,463.135c0.28-0.3,0.64-0.45,1.07-0.451
				c0.46-0.001,0.83,0.148,1.11,0.448c0.29,0.3,0.451,0.749,0.492,1.35l-3.19,0.004
				C211.135,463.896,211.305,463.446,211.594,463.135z"/>
			<path style="fill:#FFFFFF;" d="M223.119,459.099c-0.14-0.17-0.351-0.25-0.61-0.249c-0.27,0-0.48,0.091-0.62,0.27
				c-0.14,0.191-0.22,0.46-0.219,0.821l0.004,2.6c-0.331-0.359-0.661-0.629-1.011-0.808c-0.35-0.169-0.781-0.259-1.281-0.258
				c-0.88,0.001-1.58,0.312-2.118,0.923c-0.539,0.621-0.808,1.471-0.807,2.571c0.001,0.52,0.071,1,0.212,1.449
				c0.13,0.45,0.331,0.84,0.591,1.169c0.261,0.33,0.571,0.579,0.931,0.76c0.36,0.179,0.75,0.268,1.17,0.268
				c0.32,0,0.61-0.051,0.88-0.141c0.27-0.08,0.52-0.211,0.75-0.381c0.23-0.17,0.459-0.391,0.689-0.661l0,0.17
				c0.001,0.32,0.081,0.57,0.241,0.75c0.16,0.17,0.35,0.259,0.6,0.259c0.24,0,0.44-0.09,0.589-0.251
				c0.16-0.17,0.239-0.42,0.239-0.76l-0.011-7.75C223.339,459.519,223.259,459.269,223.119,459.099z M221.359,466.272
				c-0.15,0.33-0.359,0.581-0.609,0.741c-0.26,0.16-0.539,0.241-0.849,0.241c-0.3,0-0.58-0.09-0.841-0.26
				c-0.26-0.17-0.46-0.419-0.611-0.749c-0.15-0.34-0.221-0.739-0.221-1.219c-0.001-0.45,0.069-0.85,0.208-1.191
				c0.139-0.34,0.329-0.6,0.589-0.78c0.25-0.181,0.54-0.281,0.859-0.282c0.31,0,0.59,0.089,0.85,0.268
				c0.26,0.18,0.471,0.44,0.621,0.77c0.15,0.34,0.231,0.74,0.232,1.21C221.588,465.521,221.508,465.932,221.359,466.272z"/>
			<path style="fill:#FFFFFF;" d="M233.704,463.075c-0.241-0.52-0.581-0.919-1.022-1.199c-0.441-0.28-0.951-0.419-1.541-0.418
				c-0.5,0.001-0.93,0.101-1.27,0.282c-0.35,0.18-0.68,0.44-1.009,0.79l-0.004-2.689c0-0.32-0.081-0.57-0.221-0.74
				c-0.151-0.18-0.361-0.259-0.63-0.259c-0.25,0-0.45,0.09-0.6,0.27c-0.14,0.181-0.209,0.45-0.209,0.811l0.01,7.67
				c0.001,0.33,0.071,0.58,0.221,0.75c0.15,0.17,0.341,0.259,0.591,0.259c0.25,0,0.45-0.09,0.609-0.261
				c0.159-0.17,0.239-0.42,0.239-0.75l0-0.17c0.19,0.219,0.351,0.389,0.461,0.499c0.12,0.109,0.26,0.219,0.431,0.329
				c0.17,0.099,0.371,0.189,0.61,0.249c0.24,0.059,0.49,0.099,0.76,0.099c0.44-0.001,0.85-0.091,1.219-0.271
				c0.36-0.181,0.68-0.432,0.929-0.762c0.259-0.32,0.459-0.711,0.588-1.15c0.139-0.45,0.199-0.93,0.198-1.47
				C234.066,464.224,233.945,463.604,233.704,463.075z M231.829,466.658c-0.319,0.39-0.699,0.581-1.139,0.582
				c-0.52,0.001-0.941-0.189-1.261-0.569c-0.32-0.37-0.481-0.91-0.482-1.61c-0.001-0.47,0.079-0.89,0.228-1.23
				c0.149-0.351,0.349-0.611,0.609-0.791c0.27-0.181,0.56-0.281,0.9-0.281c0.32-0.001,0.61,0.099,0.85,0.279
				c0.25,0.179,0.441,0.439,0.571,0.769c0.13,0.34,0.201,0.74,0.201,1.2C232.308,465.726,232.149,466.276,231.829,466.658z"/>
			<path style="fill:#FFFFFF;" d="M240.492,461.826c-0.07-0.12-0.16-0.21-0.28-0.28c-0.12-0.069-0.25-0.109-0.38-0.109
				c-0.19,0-0.33,0.03-0.43,0.1c-0.1,0.06-0.199,0.191-0.289,0.371c-0.09,0.19-0.189,0.44-0.299,0.77l-1.405,4.022l-1.496-4.328
				c-0.1-0.3-0.211-0.53-0.341-0.69c-0.13-0.16-0.32-0.239-0.57-0.238c-0.15,0-0.29,0.04-0.42,0.12
				c-0.14,0.07-0.25,0.181-0.319,0.311c-0.08,0.12-0.12,0.26-0.12,0.41c0,0.149,0.07,0.37,0.201,0.689l2.168,5.438l-0.16,0.4
				c-0.119,0.28-0.219,0.5-0.319,0.651c-0.09,0.15-0.19,0.25-0.31,0.31c-0.11,0.061-0.27,0.091-0.47,0.091
				c-0.09,0-0.18-0.01-0.29-0.04c-0.09-0.02-0.19-0.04-0.28-0.04c-0.24,0-0.42,0.06-0.54,0.171c-0.13,0.11-0.189,0.26-0.189,0.46
				c0,0.3,0.13,0.5,0.391,0.62c0.26,0.109,0.64,0.159,1.16,0.158c0.521-0.001,0.94-0.081,1.25-0.242
				c0.32-0.161,0.57-0.391,0.749-0.691c0.19-0.3,0.389-0.711,0.578-1.241l2.292-6.003c0.05-0.159,0.1-0.31,0.139-0.46
				c0.039-0.149,0.059-0.27,0.079-0.35C240.593,462.075,240.563,461.945,240.492,461.826z"/>
		</g>
		<g>
			<path style="fill:#FFFFFF;" d="M261.803,461.559l0.419-0.001l-0.001-0.527c-0.001-0.552,0.066-0.987,0.205-1.313
				c0.138-0.324,0.376-0.561,0.709-0.709c0.332-0.148,0.788-0.223,1.367-0.224c1.029-0.001,1.54,0.247,1.541,0.753
				c0,0.162-0.053,0.302-0.163,0.417c-0.104,0.115-0.232,0.174-0.378,0.174c-0.067,0-0.188-0.012-0.357-0.04
				c-0.161-0.022-0.307-0.038-0.422-0.038c-0.317,0-0.519,0.096-0.614,0.282c-0.086,0.187-0.131,0.453-0.131,0.803l0.001,0.418
				l0.429-0.001c0.672-0.001,1.004,0.2,1.005,0.606c0,0.284-0.085,0.468-0.266,0.545c-0.176,0.079-0.423,0.117-0.737,0.117
				l-0.429,0.001l0.006,4.656c0.001,0.347-0.081,0.61-0.249,0.792c-0.164,0.185-0.376,0.276-0.638,0.276
				c-0.249,0-0.455-0.09-0.622-0.275c-0.166-0.181-0.248-0.445-0.248-0.792l-0.006-4.656l-0.484,0.001
				c-0.263,0-0.462-0.056-0.606-0.177c-0.142-0.115-0.213-0.27-0.214-0.459C260.919,461.769,261.214,461.56,261.803,461.559
				L261.803,461.559z"/>
			<path style="fill:#FFFFFF;" d="M267.562,466.007l0.002,1.469c0,0.355-0.089,0.623-0.252,0.8c-0.168,0.18-0.379,0.268-0.635,0.268
				c-0.259,0-0.466-0.088-0.628-0.271c-0.16-0.178-0.245-0.444-0.245-0.796l-0.007-4.895c-0.001-0.79,0.283-1.186,0.853-1.187
				c0.294,0,0.503,0.091,0.633,0.276c0.128,0.185,0.2,0.457,0.216,0.819c0.207-0.363,0.422-0.634,0.641-0.82
				c0.224-0.185,0.516-0.277,0.887-0.278c0.372,0,0.727,0.091,1.075,0.275c0.349,0.185,0.523,0.431,0.523,0.735
				c0,0.214-0.075,0.394-0.22,0.531c-0.149,0.142-0.307,0.211-0.478,0.212c-0.067,0-0.225-0.043-0.47-0.121
				c-0.247-0.077-0.467-0.116-0.653-0.116c-0.258,0-0.47,0.07-0.632,0.203c-0.164,0.139-0.29,0.337-0.381,0.601
				c-0.088,0.268-0.148,0.587-0.183,0.952C267.576,465.032,267.561,465.48,267.562,466.007L267.562,466.007z"/>
			<path style="fill:#FFFFFF;" d="M276.378,466.116c-0.16,0-0.29,0.04-0.38,0.121c-0.219,0.2-0.399,0.371-0.539,0.48
				c-0.139,0.131-0.279,0.241-0.449,0.341c-0.16,0.11-0.33,0.19-0.5,0.23c-0.181,0.061-0.37,0.081-0.58,0.081
				c-0.311,0-0.601-0.079-0.861-0.228c-0.26-0.16-0.47-0.39-0.631-0.689c-0.151-0.3-0.231-0.66-0.242-1.059l3.44-0.005
				c0.46-0.001,0.819-0.062,1.069-0.192c0.25-0.14,0.379-0.42,0.379-0.861c-0.001-0.48-0.121-0.939-0.372-1.409
				c-0.24-0.461-0.611-0.829-1.101-1.119c-0.491-0.289-1.081-0.429-1.77-0.428c-0.53,0.001-1.011,0.082-1.44,0.252
				c-0.429,0.171-0.799,0.411-1.089,0.732c-0.299,0.321-0.529,0.701-0.678,1.141c-0.159,0.45-0.229,0.931-0.228,1.451
				c0.001,1.1,0.312,1.98,0.944,2.619c0.62,0.639,1.501,0.958,2.631,0.956c0.489-0.001,0.93-0.062,1.309-0.192
				c0.38-0.13,0.7-0.291,0.949-0.481c0.25-0.201,0.44-0.401,0.57-0.621c0.12-0.21,0.179-0.39,0.179-0.55
				c0-0.181-0.06-0.32-0.171-0.42C276.708,466.166,276.559,466.116,276.378,466.116z M272.714,463.051
				c0.28-0.3,0.64-0.45,1.07-0.451c0.471-0.001,0.83,0.148,1.121,0.448c0.281,0.29,0.442,0.74,0.482,1.34l-3.19,0.004
				C272.256,463.802,272.425,463.362,272.714,463.051z"/>
			<path style="fill:#FFFFFF;" d="M283.689,466.106c-0.16,0-0.29,0.04-0.38,0.121c-0.22,0.2-0.4,0.371-0.539,0.48
				c-0.14,0.131-0.28,0.241-0.45,0.342c-0.16,0.11-0.33,0.19-0.509,0.23c-0.17,0.061-0.36,0.081-0.57,0.081
				c-0.31,0-0.6-0.079-0.861-0.228c-0.26-0.16-0.47-0.39-0.62-0.69c-0.16-0.299-0.241-0.66-0.251-1.059l3.439-0.005
				c0.46-0.001,0.82-0.062,1.07-0.192c0.25-0.14,0.379-0.42,0.379-0.861c-0.001-0.479-0.121-0.939-0.372-1.409
				c-0.241-0.461-0.612-0.829-1.101-1.119c-0.5-0.289-1.081-0.429-1.771-0.428c-0.53,0.001-1.01,0.081-1.44,0.252
				c-0.439,0.171-0.799,0.411-1.089,0.732c-0.299,0.321-0.528,0.701-0.678,1.141c-0.159,0.45-0.239,0.931-0.238,1.451
				c0.001,1.1,0.323,1.98,0.954,2.619c0.621,0.639,1.501,0.958,2.631,0.956c0.49-0.001,0.93-0.062,1.31-0.192
				c0.38-0.13,0.699-0.291,0.948-0.481c0.25-0.201,0.44-0.401,0.56-0.621c0.13-0.21,0.179-0.39,0.179-0.55
				c0-0.181-0.05-0.32-0.161-0.42C284.019,466.156,283.868,466.106,283.689,466.106z M280.015,463.041
				c0.29-0.3,0.649-0.45,1.079-0.451c0.46-0.001,0.83,0.148,1.12,0.448c0.281,0.29,0.441,0.74,0.482,1.34l-3.19,0.004
				C279.565,463.792,279.735,463.352,280.015,463.041z"/>
			<path style="fill:#FFFFFF;" d="M291.996,464.715c-0.02-0.65-0.151-1.21-0.382-1.7c-0.27-0.53-0.631-0.939-1.082-1.218
				c-0.46-0.28-0.96-0.419-1.5-0.418c-0.45,0.001-0.849,0.101-1.2,0.292c-0.359,0.19-0.709,0.491-1.039,0.901l0-0.21
				c-0.001-0.33-0.07-0.569-0.23-0.739c-0.16-0.171-0.361-0.25-0.611-0.249c-0.25,0-0.449,0.08-0.599,0.24
				c-0.15,0.17-0.219,0.42-0.219,0.761l0.01,7.579c0,0.391,0.06,0.671,0.16,0.881c0.111,0.189,0.331,0.29,0.661,0.289
				c0.561-0.001,0.839-0.392,0.838-1.161l-0.004-2.63c0.181,0.22,0.361,0.409,0.552,0.569c0.14,0.12,0.28,0.22,0.43,0.31
				c0.34,0.2,0.76,0.299,1.26,0.298c0.42,0,0.81-0.081,1.17-0.242c0.37-0.171,0.68-0.411,0.949-0.711
				c0.259-0.31,0.469-0.69,0.628-1.141c0.15-0.45,0.219-0.95,0.219-1.491C292.007,464.855,292.007,464.785,291.996,464.715z
				 M290.019,466.138c-0.15,0.34-0.339,0.59-0.6,0.76c-0.239,0.17-0.519,0.262-0.809,0.262c-0.06,0-0.12,0-0.17-0.02
				c-0.42-0.03-0.771-0.228-1.061-0.569c-0.331-0.379-0.491-0.929-0.492-1.629c-0.001-0.74,0.157-1.3,0.498-1.69
				c0.329-0.38,0.738-0.571,1.219-0.572c0.31,0,0.59,0.089,0.84,0.268c0.25,0.18,0.441,0.43,0.581,0.77
				c0.151,0.33,0.221,0.729,0.221,1.19c0.001,0.43-0.059,0.8-0.188,1.11C290.048,466.058,290.038,466.098,290.019,466.138z"/>
			<path style="fill:#FFFFFF;" d="M294.393,461.622c-0.17-0.18-0.38-0.259-0.64-0.259c-0.25,0-0.461,0.08-0.62,0.261
				c-0.16,0.18-0.249,0.44-0.249,0.79l0.007,5.029c0,0.341,0.091,0.6,0.251,0.79c0.16,0.18,0.371,0.27,0.621,0.27
				c0.26,0,0.47-0.081,0.639-0.271c0.17-0.18,0.249-0.44,0.249-0.79l-0.007-5.079C294.643,462.042,294.563,461.801,294.393,461.622z
				 M294.379,459.042c-0.181-0.15-0.38-0.219-0.611-0.219c-0.23,0-0.44,0.081-0.62,0.24c-0.179,0.16-0.269,0.37-0.269,0.62
				c0,0.271,0.091,0.48,0.27,0.63c0.17,0.15,0.38,0.23,0.621,0.23c0.24,0,0.439-0.081,0.62-0.231c0.17-0.15,0.25-0.36,0.249-0.63
				C294.64,459.402,294.549,459.181,294.379,459.042z"/>
			<path style="fill:#FFFFFF;" d="M300.319,467.696l-1.551-2.55l-0.953,0.902l0.002,1.399c0,0.339-0.089,0.598-0.268,0.78
				c-0.175,0.185-0.383,0.276-0.614,0.276c-0.27,0-0.484-0.088-0.638-0.271c-0.154-0.178-0.233-0.444-0.233-0.796l-0.01-7.498
				c0-0.388,0.076-0.685,0.222-0.89c0.151-0.207,0.369-0.307,0.646-0.307c0.271,0,0.484,0.092,0.644,0.278
				c0.159,0.182,0.24,0.456,0.24,0.814l0.006,4.265l1.974-2.078c0.245-0.255,0.428-0.435,0.56-0.528
				c0.128-0.095,0.283-0.142,0.467-0.142c0.221,0,0.402,0.07,0.553,0.208c0.143,0.139,0.217,0.316,0.217,0.524
				c0,0.257-0.238,0.603-0.713,1.032l-0.931,0.857l1.806,2.833c0.131,0.213,0.23,0.368,0.288,0.478
				c0.058,0.107,0.088,0.217,0.088,0.312c0,0.28-0.076,0.498-0.229,0.661c-0.152,0.161-0.354,0.241-0.6,0.241
				c-0.214,0-0.382-0.054-0.497-0.173C300.677,468.207,300.516,467.997,300.319,467.696L300.319,467.696z"/>
			<path style="fill:#FFFFFF;" d="M304.139,468.493c-0.265,0-0.492-0.085-0.687-0.257c-0.193-0.169-0.292-0.411-0.292-0.721
				c0-0.262,0.093-0.487,0.277-0.675c0.186-0.19,0.412-0.284,0.683-0.284c0.268,0,0.498,0.093,0.693,0.278
				c0.19,0.186,0.287,0.414,0.287,0.678c0,0.307-0.096,0.547-0.285,0.718C304.622,468.407,304.396,468.493,304.139,468.493
				L304.139,468.493z"/>
			<path style="fill:#FFFFFF;" d="M312.878,466.306c0,0.218-0.065,0.453-0.196,0.702c-0.13,0.251-0.33,0.487-0.6,0.713
				c-0.267,0.225-0.604,0.409-1.012,0.545c-0.407,0.137-0.868,0.209-1.376,0.21c-1.089,0.001-1.938-0.316-2.548-0.946
				c-0.608-0.634-0.914-1.483-0.916-2.548c-0.001-0.723,0.136-1.36,0.416-1.915c0.276-0.552,0.679-0.981,1.206-1.285
				c0.527-0.304,1.161-0.456,1.893-0.457c0.456-0.001,0.873,0.065,1.255,0.198c0.38,0.131,0.701,0.305,0.966,0.513
				c0.262,0.212,0.465,0.435,0.604,0.671c0.14,0.238,0.209,0.462,0.209,0.669c0,0.209-0.077,0.388-0.232,0.534
				c-0.159,0.146-0.349,0.22-0.568,0.221c-0.148,0-0.27-0.039-0.367-0.113c-0.097-0.076-0.206-0.196-0.325-0.367
				c-0.215-0.324-0.438-0.57-0.676-0.73c-0.233-0.164-0.529-0.244-0.89-0.244c-0.517,0.001-0.938,0.203-1.256,0.61
				c-0.316,0.404-0.475,0.962-0.474,1.664c0,0.331,0.044,0.637,0.125,0.913c0.079,0.276,0.198,0.512,0.354,0.708
				c0.156,0.194,0.342,0.341,0.561,0.443c0.22,0.103,0.461,0.152,0.721,0.151c0.353,0,0.655-0.082,0.905-0.245
				c0.255-0.163,0.476-0.412,0.668-0.748c0.107-0.197,0.221-0.351,0.344-0.463c0.124-0.111,0.277-0.169,0.458-0.169
				c0.215,0,0.393,0.082,0.534,0.244C312.806,465.947,312.878,466.123,312.878,466.306L312.878,466.306z"/>
			<path style="fill:#FFFFFF;" d="M320.214,463.446c-0.16-0.43-0.391-0.809-0.701-1.129c-0.311-0.319-0.682-0.559-1.111-0.728
				c-0.441-0.18-0.92-0.259-1.451-0.258c-0.529,0.001-1.01,0.08-1.439,0.252c-0.431,0.171-0.8,0.41-1.109,0.731
				c-0.299,0.311-0.539,0.691-0.699,1.131c-0.16,0.441-0.239,0.931-0.238,1.46c0.001,0.53,0.081,1.01,0.232,1.45
				c0.171,0.43,0.402,0.809,0.721,1.129c0.3,0.32,0.682,0.569,1.102,0.739c0.42,0.169,0.9,0.259,1.44,0.258
				c0.53-0.001,1.01-0.091,1.45-0.262c0.42-0.171,0.79-0.411,1.1-0.732c0.309-0.32,0.549-0.7,0.707-1.141
				c0.16-0.441,0.239-0.93,0.238-1.451C320.456,464.367,320.375,463.886,320.214,463.446z M318.229,466.559
				c-0.32,0.411-0.74,0.611-1.27,0.612c-0.359,0-0.66-0.089-0.92-0.269c-0.26-0.189-0.461-0.45-0.601-0.799
				c-0.141-0.34-0.211-0.74-0.211-1.2c-0.001-0.46,0.068-0.87,0.208-1.22c0.139-0.34,0.339-0.611,0.608-0.791
				c0.26-0.17,0.56-0.261,0.91-0.261c0.53-0.001,0.95,0.199,1.271,0.598c0.31,0.4,0.471,0.959,0.472,1.669
				C318.698,465.608,318.538,466.158,318.229,466.559z"/>
			<path style="fill:#FFFFFF;" d="M327.165,465.018l0.003,2.336c0,0.371-0.081,0.645-0.25,0.832
				c-0.169,0.185-0.386,0.277-0.662,0.277c-0.267,0-0.484-0.091-0.645-0.275c-0.168-0.187-0.252-0.461-0.253-0.832l-0.004-2.8
				c-0.001-0.442-0.016-0.787-0.044-1.033c-0.031-0.239-0.115-0.443-0.247-0.597c-0.133-0.16-0.345-0.238-0.631-0.237
				c-0.576,0.001-0.953,0.198-1.135,0.598c-0.181,0.391-0.274,0.958-0.273,1.7l0.003,2.373c0.001,0.364-0.082,0.642-0.244,0.829
				c-0.169,0.186-0.384,0.28-0.654,0.28c-0.268,0-0.485-0.093-0.656-0.278c-0.17-0.187-0.255-0.465-0.256-0.829l-0.007-5.028
				c-0.001-0.331,0.075-0.583,0.227-0.753c0.155-0.174,0.356-0.259,0.602-0.26c0.242,0,0.441,0.083,0.605,0.24
				c0.161,0.161,0.241,0.383,0.241,0.667l0,0.166c0.307-0.363,0.633-0.632,0.977-0.801c0.35-0.177,0.733-0.263,1.161-0.263
				c0.441-0.001,0.82,0.088,1.137,0.262c0.319,0.176,0.58,0.444,0.788,0.797c0.297-0.359,0.615-0.626,0.954-0.801
				c0.339-0.175,0.714-0.263,1.127-0.263c0.479-0.001,0.896,0.096,1.243,0.283c0.346,0.188,0.606,0.459,0.779,0.809
				c0.15,0.32,0.225,0.82,0.226,1.503l0.005,3.431c0,0.371-0.082,0.645-0.248,0.832c-0.167,0.185-0.389,0.277-0.664,0.277
				c-0.268,0-0.484-0.093-0.654-0.278c-0.17-0.187-0.256-0.465-0.256-0.829l-0.004-2.956c0-0.378-0.017-0.68-0.048-0.906
				c-0.033-0.228-0.121-0.421-0.261-0.574c-0.144-0.154-0.36-0.232-0.646-0.232c-0.232,0-0.452,0.073-0.66,0.209
				c-0.208,0.135-0.371,0.324-0.488,0.551C327.229,463.741,327.164,464.267,327.165,465.018L327.165,465.018z"/>
		</g>
		<g>
			<path style="fill:#FFFFFF;" d="M245.359,464.576c-0.001-0.003-0.001-0.006-0.001-0.012
				C245.358,464.57,245.358,464.573,245.359,464.576z"/>
			<path style="fill:#FFFFFF;" d="M245.449,465.138c0.001,0,0.001,0,0.002,0c-0.034-0.16-0.061-0.319-0.081-0.475
				C245.39,464.821,245.417,464.98,245.449,465.138z"/>
			<path style="fill:#FFFFFF;" d="M246.033,466.768c-0.004-0.007-0.007-0.015-0.012-0.022
				C246.026,466.754,246.029,466.761,246.033,466.768z"/>
			<path style="fill:#FFFFFF;" d="M245.977,466.66c-0.015-0.03-0.03-0.061-0.045-0.091C245.947,466.6,245.962,466.63,245.977,466.66
				z"/>
			<path style="fill:#FFFFFF;" d="M245.613,465.766c0.086,0.271,0.191,0.534,0.311,0.785c-0.122-0.256-0.225-0.519-0.309-0.785
				C245.615,465.766,245.614,465.766,245.613,465.766z"/>
			<path style="fill:#FFFFFF;" d="M252.153,457.833c0.34-0.001,0.59,0.026,0.878,0.074l0.08-0.517c0,0-0.794-0.243-1.837-0.157
				l-0.083-0.281c0.324-0.069,0.567-0.357,0.566-0.702c-0.001-0.395-0.322-0.713-0.717-0.713c-0.396,0.001-0.715,0.32-0.715,0.715
				c0.001,0.345,0.244,0.633,0.568,0.7l0.091,0.313c-1.107,0.154-1.988,0.588-1.988,0.588l0.157,0.477
				c0.67-0.225,1.251-0.36,1.778-0.418C251.448,457.858,251.837,457.833,252.153,457.833z"/>
			<path style="fill:#FFFFFF;" d="M246.011,460.456l0.004-0.005c0.026-0.034,0.051-0.065,0.077-0.097l-0.212-0.153l-0.331-0.241
				c-0.019,0.025-0.538,0.505-0.948,1.389c-0.018-0.027-0.038-0.055-0.061-0.081c-0.123-0.134-0.295-0.202-0.514-0.197
				c-0.003,0-0.006,0-0.01,0c-0.135,0-0.228-0.046-0.289-0.1c0.06-0.076,0.096-0.173,0.096-0.28c0-0.249-0.204-0.453-0.454-0.452
				c-0.25,0-0.453,0.205-0.452,0.454c0,0.251,0.204,0.454,0.454,0.453c0.04,0,0.077-0.007,0.113-0.014
				c0.111,0.123,0.288,0.231,0.548,0.225c0.133-0.001,0.231,0.033,0.296,0.105c0.075,0.082,0.101,0.2,0.109,0.29
				c-0.001,0.001-0.001,0.003-0.002,0.003c-0.294,0.807-0.208,1.81-0.208,1.81l0.716,0.027c0.014-0.365,0.066-1.004,0.25-1.512
				C245.547,461.097,245.993,460.482,246.011,460.456z"/>
			<path style="fill:#FFFFFF;" d="M258.388,458.423c-0.249,0-0.453,0.203-0.452,0.454c0,0.039,0.006,0.076,0.016,0.112
				c-0.124,0.112-0.232,0.29-0.228,0.549c0.002,0.134-0.032,0.23-0.104,0.296c-0.057,0.051-0.13,0.078-0.2,0.096
				c-0.534-0.746-1.192-1.202-1.192-1.202l-0.513,0.552c0.389,0.353,0.786,0.796,1.173,1.347c0.267,0.382,0.543,0.874,0.772,1.365
				l0.693-0.331c0,0-0.317-0.783-0.765-1.484c0.077-0.027,0.155-0.07,0.224-0.13c0.135-0.123,0.202-0.296,0.198-0.514
				c-0.001-0.142,0.045-0.236,0.1-0.3c0.077,0.06,0.174,0.098,0.279,0.097c0.252,0,0.454-0.205,0.453-0.455
				C258.843,458.625,258.64,458.423,258.388,458.423z"/>
			<path style="fill:#FFFFFF;" d="M256.596,464.662c-0.954,0.467-2.526,1.084-4.594,1.375c-0.812,0.113-1.599,0.156-2.324,0.158
				c-0.942,0.001-1.775-0.068-2.414-0.148c-0.73-0.091-1.3-0.202-1.649-0.281c0.084,0.266,0.186,0.529,0.309,0.785
				c0.002,0.007,0.005,0.014,0.008,0.019c0.015,0.029,0.029,0.061,0.045,0.091c0.015,0.029,0.029,0.059,0.044,0.086
				c0.004,0.008,0.008,0.016,0.012,0.022c0.206,0.386,0.453,0.742,0.734,1.049c0.977,1.066,1.972,1.234,1.981,1.235l0.016,0.002
				l0.015,0.005c0.009,0.004,0.891,0.287,2.231,0.285c1.319-0.002,2.612-0.269,3.844-0.796c0.912-0.468,1.776-1.179,2.203-1.813
				c0.33-0.49,0.569-1.013,0.71-1.556c0.075-0.288,0.134-0.75,0.098-1.236C257.595,464.124,257.171,464.381,256.596,464.662z"/>
			<path style="fill:#FFFFFF;" d="M256.571,460.844c-1.352-1.939-2.823-2.437-3.573-2.556c-0.29-0.049-0.521-0.069-0.841-0.068
				c-0.31,0-0.68,0.021-1.189,0.071c-0.5,0.051-1.06,0.192-1.709,0.412c-0.92,0.301-1.739,0.783-2.388,1.383l-0.02,0.021
				c-0.1,0.09-0.3,0.281-0.529,0.571c-0.03,0.04-0.449,0.631-0.768,1.53c-0.249,0.681-0.237,1.661-0.237,1.67
				c0,0.23,0.021,0.46,0.041,0.69c0,0,0,0,0,0.01c0.01,0.03,0.01,0.05,0.01,0.08c0.02,0.16,0.051,0.32,0.081,0.48
				c0.48,0.118,3.311,0.775,6.47,0.331c1.99-0.283,3.489-0.865,4.408-1.316c0.759-0.36,1.249-0.701,1.439-0.842
				C257.574,462.622,257.052,461.523,256.571,460.844z M249.055,463.993c-1.06,0.001-1.911-0.847-1.912-1.908
				c-0.001-1.05,0.847-1.901,1.907-1.902c1.05-0.001,1.911,0.847,1.913,1.897C250.964,463.141,250.106,463.992,249.055,463.993z
				 M254.634,462.586c-0.65,0.001-1.181-0.529-1.182-1.189c-0.001-0.65,0.529-1.18,1.179-1.181c0.649-0.001,1.181,0.528,1.181,1.178
				C255.813,462.055,255.283,462.586,254.634,462.586z"/>
		</g>
	</g>
</g>
</svg>
