<?xml version="1.0" encoding="utf-8"?>
<!-- Generator: Adobe Illustrator 27.5.0, SVG Export Plug-In . SVG Version: 6.00 Build 0)  -->
<svg version="1.1" xmlns="http://www.w3.org/2000/svg" xmlns:xlink="http://www.w3.org/1999/xlink" x="0px" y="0px"
	 viewBox="0 0 500 500" style="enable-background:new 0 0 500 500;" xml:space="preserve">
<g id="BACKGROUND">
	<rect style="fill:#DCE9FF;" width="500" height="500"/>
</g>
<g id="OBJECTS">
	<g>
		<path style="fill:#BBD7FF;" d="M129.898,439.038c-21.674-7.129-42.066-19.318-56.489-36.997
			c-14.423-17.679-22.387-41.154-18.964-63.712c3.266-21.527,16.213-39.411,22.876-59.747c9.248-28.224,2.309-53.715-5.876-81.016
			c-9.222-30.76-1.847-67.707,14.808-94.646c11.745-18.996,29.592-34.154,52.533-35.477c21.783-1.256,42.961,5.856,64.691,5.612
			c22.476-0.252,44.725-2.235,66.874-6.564c29.842-5.833,60.504-12.263,90.932-6.94c27.479,4.807,58.145,19.212,72.315,44.809
			c18.779,33.922-6.614,71.443-1.326,107.151c2.335,15.769,10.415,30.008,15.825,45.002c11.399,31.592,10.694,67.096-0.335,98.819
			s-30.727,61.345-57.149,82.078L129.898,439.038z"/>
		<ellipse style="fill:#BBD7FF;" cx="253.194" cy="436.573" rx="168.136" ry="15.862"/>
		<path style="fill:#ADADEA;" d="M122.898,429.038c-21.674-7.129-42.066-19.318-56.489-36.997
			c-14.423-17.679-22.387-41.154-18.964-63.712c3.266-21.527,16.213-39.411,22.876-59.747c9.248-28.224,2.309-53.715-5.876-81.016
			c-9.222-30.76-1.847-67.707,14.808-94.646c11.745-18.996,29.592-34.154,52.533-35.477c21.783-1.256,42.961,5.856,64.691,5.612
			c22.476-0.252,44.725-2.235,66.874-6.564c29.842-5.833,60.504-12.263,90.932-6.94c27.479,4.807,58.145,19.212,72.315,44.809
			c18.779,33.922-6.614,71.443-1.326,107.151c2.335,15.769,10.415,30.008,15.825,45.002c11.399,31.592,10.694,67.096-0.335,98.819
			s-30.727,61.345-57.149,82.078L122.898,429.038z"/>
		<g>
			<polygon style="fill:#1E0D7D;" points="254.919,85.757 259.056,94.139 268.306,95.483 261.613,102.007 263.193,111.22 
				254.919,106.871 246.646,111.22 248.226,102.007 241.533,95.483 250.783,94.139 			"/>
			<polygon style="fill:#1E0D7D;" points="278.307,93.882 280.947,99.232 286.85,100.09 282.578,104.253 283.587,110.133 
				278.307,107.357 273.026,110.133 274.035,104.253 269.763,100.09 275.666,99.232 			"/>
			<polygon style="fill:#1E0D7D;" points="296.411,97.16 298.519,101.43 303.231,102.115 299.821,105.439 300.626,110.133 
				296.411,107.917 292.196,110.133 293.001,105.439 289.591,102.115 294.303,101.43 			"/>
			<polygon style="fill:#1E0D7D;" points="210.283,97.16 212.39,101.43 217.103,102.115 213.693,105.439 214.498,110.133 
				210.283,107.917 206.068,110.133 206.873,105.439 203.463,102.115 208.175,101.43 			"/>
			<polygon style="fill:#1E0D7D;" points="229.863,93.882 232.503,99.232 238.406,100.09 234.134,104.253 235.143,110.133 
				229.863,107.357 224.582,110.133 225.591,104.253 221.319,100.09 227.222,99.232 			"/>
		</g>
		<g>
			<rect x="120.002" y="128.378" style="fill:#4120D5;" width="266.835" height="141.97"/>
			<g>
				
					<ellipse transform="matrix(0.8533 -0.5215 0.5215 0.8533 -49.2889 156.5818)" style="fill:#FECB69;" cx="253.593" cy="165.875" rx="24.846" ry="24.846"/>
				<path style="opacity:0.13;" d="M233.91,181.03c4.543,5.892,11.667,9.691,19.683,9.691c13.722,0,24.846-11.124,24.846-24.846
					c0-5.361-1.704-10.321-4.591-14.38C263.723,159.02,245.088,172.851,233.91,181.03z"/>
				<g>
					<circle style="fill:#FFFFFF;" cx="253.593" cy="165.875" r="20.686"/>
					<path style="fill:#1E0D7D;" d="M253.593,188.014c-12.207,0-22.139-9.932-22.139-22.139s9.931-22.139,22.139-22.139
						c12.208,0,22.139,9.932,22.139,22.139S265.801,188.014,253.593,188.014z M253.593,146.642
						c-10.605,0-19.233,8.628-19.233,19.233s8.628,19.233,19.233,19.233c10.605,0,19.234-8.628,19.234-19.233
						S264.198,146.642,253.593,146.642z"/>
				</g>
				<path style="fill:#1E0D7D;" d="M265.185,158.034c-0.845,0.811-1.725,1.574-2.586,2.362c-0.872,0.772-1.755,1.53-2.649,2.273
					c-0.893,0.744-1.673,1.647-2.712,2.184c-1.031,0.548-2.111,1.026-3.405,1.203c-0.067,0.009-0.129-0.038-0.138-0.105
					c-0.004-0.026,0.001-0.051,0.013-0.073c0.598-1.16,1.41-2.019,2.271-2.808c0.853-0.8,1.965-1.234,2.964-1.827
					c0.998-0.594,2.008-1.173,3.027-1.738c1.031-0.548,2.044-1.123,3.09-1.648c0.055-0.027,0.121-0.005,0.148,0.049
					C265.23,157.949,265.219,158.001,265.185,158.034z"/>
				<path style="fill:#1E0D7D;" d="M246.91,157.908c0.671,0.504,1.297,1.048,1.947,1.57c0.635,0.535,1.257,1.082,1.864,1.642
					c0.608,0.559,1.366,0.987,1.782,1.713c0.43,0.714,0.79,1.489,0.876,2.502c0.006,0.074-0.049,0.14-0.123,0.146
					c-0.014,0.001-0.028,0-0.042-0.003c-0.992-0.224-1.71-0.687-2.358-1.211c-0.663-0.511-0.982-1.321-1.452-2
					c-0.471-0.679-0.927-1.369-1.37-2.072c-0.428-0.715-0.88-1.41-1.288-2.143c-0.03-0.054-0.01-0.122,0.043-0.152
					C246.828,157.877,246.876,157.882,246.91,157.908z"/>
				<path style="fill:#D3D3D3;" d="M254.448,148.076c0,0.513-0.415,0.928-0.928,0.928s-0.928-0.416-0.928-0.928
					c0-0.513,0.416-0.928,0.928-0.928S254.448,147.563,254.448,148.076z"/>
				<path style="fill:#D3D3D3;" d="M262.931,150.545c0,0.323-0.262,0.585-0.586,0.585c-0.323,0-0.585-0.262-0.585-0.585
					c0-0.323,0.262-0.585,0.585-0.585C262.669,149.96,262.931,150.221,262.931,150.545z"/>
				<path style="fill:#D3D3D3;" d="M254.448,183.701c0,0.513-0.415,0.929-0.928,0.929s-0.928-0.416-0.928-0.929
					c0-0.512,0.416-0.928,0.928-0.928S254.448,183.189,254.448,183.701z"/>
				<path style="fill:#D3D3D3;" d="M235.707,164.96c0.513,0,0.928,0.416,0.928,0.928c0,0.513-0.416,0.929-0.928,0.929
					c-0.512,0-0.928-0.416-0.928-0.929C234.779,165.376,235.195,164.96,235.707,164.96z"/>
				<path style="fill:#D3D3D3;" d="M271.333,164.96c0.513,0,0.928,0.416,0.928,0.928c0,0.513-0.416,0.929-0.928,0.929
					c-0.512,0-0.928-0.416-0.928-0.929C270.405,165.376,270.82,164.96,271.333,164.96z"/>
				<path style="fill:#D3D3D3;" d="M269.487,156.813c0,0.323-0.262,0.586-0.585,0.586c-0.324,0-0.586-0.262-0.586-0.586
					c0-0.323,0.262-0.585,0.586-0.585C269.225,156.228,269.487,156.49,269.487,156.813z"/>
				<path style="fill:#D3D3D3;" d="M244.455,150.545c0,0.323,0.262,0.585,0.585,0.585c0.323,0,0.585-0.262,0.585-0.585
					c0-0.323-0.262-0.585-0.585-0.585C244.717,149.96,244.455,150.221,244.455,150.545z"/>
				<path style="fill:#D3D3D3;" d="M237.898,156.813c0,0.323,0.262,0.586,0.585,0.586c0.323,0,0.585-0.262,0.585-0.586
					c0-0.323-0.262-0.585-0.585-0.585C238.161,156.228,237.898,156.49,237.898,156.813z"/>
				<path style="fill:#D3D3D3;" d="M244.455,181.676c0-0.323,0.262-0.585,0.585-0.585c0.323,0,0.585,0.262,0.585,0.585
					c0,0.323-0.262,0.585-0.585,0.585C244.717,182.262,244.455,181.999,244.455,181.676z"/>
				<path style="fill:#D3D3D3;" d="M237.898,175.408c0-0.323,0.262-0.586,0.585-0.586c0.323,0,0.585,0.262,0.585,0.586
					c0,0.323-0.262,0.585-0.585,0.585C238.161,175.993,237.898,175.731,237.898,175.408z"/>
				<path style="fill:#D3D3D3;" d="M262.931,181.676c0-0.323-0.262-0.585-0.586-0.585c-0.323,0-0.585,0.262-0.585,0.585
					c0,0.323,0.262,0.585,0.585,0.585C262.669,182.262,262.931,181.999,262.931,181.676z"/>
				<path style="fill:#D3D3D3;" d="M269.487,175.408c0-0.323-0.262-0.586-0.585-0.586c-0.324,0-0.586,0.262-0.586,0.586
					c0,0.323,0.262,0.585,0.586,0.585C269.225,175.993,269.487,175.731,269.487,175.408z"/>
				<path style="opacity:0.08;" d="M271.146,154.932c0.119,0.964,0.187,1.944,0.187,2.94c0,13.147-10.658,23.804-23.804,23.804
					c-3.263,0-6.371-0.658-9.203-1.846c3.782,4.135,9.221,6.73,15.267,6.73c11.425,0,20.686-9.261,20.686-20.686
					C274.279,161.856,273.129,158.107,271.146,154.932z"/>
				<path style="fill:#EF1D41;" d="M254.133,165.875c0,0.311-0.252,0.562-0.562,0.562c-0.31,0-0.562-0.252-0.562-0.562
					c0-0.311,0.252-0.562,0.562-0.562C253.881,165.312,254.133,165.564,254.133,165.875z"/>
			</g>
			<g>
				<polygon style="fill:#9689F4;" points="300.382,218.564 267.409,217.274 245.667,220.109 239.579,238.883 239.579,238.883 
					245.883,322.014 307.055,322.014 304.889,231.135 				"/>
				<g>
					<path style="fill:#FFB9B0;" d="M263.686,195.82c0.167,3.723-2.716,6.877-6.439,7.043c-3.723,0.167-6.876-2.716-7.043-6.439
						c-0.167-3.723,2.716-6.876,6.439-7.043C260.366,189.214,263.519,192.097,263.686,195.82z"/>
					<path style="fill:#080056;" d="M295.511,173.272c0,0,6.776,3.24,3.28,9.656c-3.496,6.416-6.926,7.445-6.926,7.445l0.279-17.322
						L295.511,173.272z"/>
					<path style="fill:#FFB9B0;" d="M301.187,190.629c0.161,3.344-2.336,6.336-5.706,6.241c-3.301-0.093-6.093-2.407-6.241-5.706
						c-0.148-3.299,2.407-6.094,5.706-6.241C298.245,184.775,301.029,187.33,301.187,190.629z"/>
					<path style="fill:#FFB9B0;" d="M262.978,200.502l-3.455,21.39c0,0,16.263,12.142,28.594,0.099l-0.518-11.56L262.978,200.502z"
						/>
					<path style="fill:#F49089;" d="M263.181,202.863l0.433-2.784l23.923,8.973l0.243,5.419
						C287.781,214.471,271.612,221.845,263.181,202.863z"/>
					<path style="fill:#FFB9B0;" d="M258.547,188.93c0,0-1.435,20.524,22.206,22.815c0,0,9.984,0.644,13.006-4.651l-0.433-34.025
						c0,0-7.129-17.697-26.556-8.77C247.343,173.227,258.547,188.93,258.547,188.93z"/>
					<path style="fill:#080056;" d="M258.879,189.181c0,0,2.389-2.21,1.107-6.137c0,0,7.435-2.03,9.619-9.285
						c-0.078,0.259,4.43,1.659,4.699,1.736c3.815,1.083,7.819,1.556,11.779,1.287c3.766-0.255,7.471-1.202,10.884-2.817
						c2.365-1.119,4.758-2.445,6.26-4.662c1.696-2.504,2.485-6.284,1.349-9.169c-0.647-1.644-1.937-2.982-3.437-3.915
						c-2.344-1.458-5.194-2.136-7.935-2.178c-3.906-0.06-7.427,1.292-11.083,2.444c-2.042,0.644-4.621,0.791-6.618-0.144
						c-0.89-0.417-1.643-0.706-2.668-0.74c-2.103-0.071-4.197,0.708-5.918,1.881c-2.088,1.424-3.73,3.37-5.344,5.288
						c-1.11,1.319-1.962,2.996-3.743,3.488c-2.104,0.581-3.917,0.983-5.6,2.508c-3.558,3.223-3.899,8.277-2.112,12.518
						c1.234,2.928,3.235,5.498,5.415,7.781C255.533,189.065,256.999,191.221,258.879,189.181z"/>
					<path style="fill:#F49089;" d="M281.222,190.353l0.267,5.974c0,0,5.409,1.591,5.104,0.059
						c-0.304-1.532-3.207-1.464-3.207-1.464L281.222,190.353z"/>
					<path style="fill:#1E1E29;" d="M276.005,192.716c0,0.518-0.42,0.937-0.937,0.937c-0.518,0-0.937-0.42-0.937-0.937
						c0-0.518,0.419-0.937,0.937-0.937C275.586,191.779,276.005,192.199,276.005,192.716z"/>
					<path style="fill:#1E1E29;" d="M290.88,190.373c0,0.518-0.42,0.937-0.937,0.937c-0.517,0-0.937-0.419-0.937-0.937
						c0-0.517,0.419-0.937,0.937-0.937C290.46,189.436,290.88,189.856,290.88,190.373z"/>
					<g>
						<g>
							<g>
								<path style="fill:#FFFFFF;" d="M267.956,200.284l14.249-6.084l11.652,3.388c0,0,4.098,14.182-8.576,14.697
									C285.281,212.285,272.632,214.52,267.956,200.284z"/>
							</g>
						</g>
						<g>
							<path style="fill:#FFFFFF;" d="M272.233,203.607c-0.063,0-0.127-0.02-0.181-0.063c-0.117-0.091-11.805-9.227-16.379-13.878
								c-0.114-0.116-0.113-0.303,0.004-0.417c0.117-0.114,0.303-0.112,0.417,0.004c4.546,4.623,16.204,13.735,16.321,13.827
								c0.128,0.1,0.151,0.285,0.051,0.414C272.408,203.568,272.321,203.607,272.233,203.607z"/>
						</g>
						<g>
							<path style="fill:#FFFFFF;" d="M293.611,198.054c-0.134-0.03-0.232-0.157-0.228-0.309l0.386-12.783
								c0.005-0.174,0.142-0.315,0.306-0.315c0.162-0.001,0.292,0.142,0.287,0.316l-0.386,12.783
								c-0.006,0.174-0.142,0.315-0.306,0.315C293.649,198.06,293.63,198.058,293.611,198.054z"/>
						</g>
						<path style="fill:#E2E2E2;" d="M294.473,202.174c-2.072,3.11-8.311,9.523-22.745,5.035c5.623,6.468,13.54,5.077,13.54,5.077
							C293.147,211.967,294.543,206.367,294.473,202.174z"/>
					</g>
					<g>
						<path style="fill:#1E1E29;" d="M275.086,185.917c-0.022-0.177-0.191-0.297-0.366-0.258l-6.528,1.439
							c-0.171,0.038-0.274,0.212-0.225,0.38c0.041,0.144,0.181,0.235,0.33,0.216l6.599-0.857c0.165-0.021,0.282-0.172,0.262-0.337
							L275.086,185.917z"/>
						<path style="fill:#1E1E29;" d="M293.26,185.746l-6.454-1.739c-0.172-0.046-0.347,0.065-0.377,0.241l-0.099,0.578
							c-0.028,0.164,0.082,0.32,0.246,0.349l6.553,1.16c0.147,0.026,0.291-0.059,0.34-0.201
							C293.524,185.971,293.429,185.792,293.26,185.746z"/>
					</g>
				</g>
				<polygon style="fill:#FFFFFF;" points="260.446,216.181 274.658,223.565 274.658,235.251 256.945,225.953 256.945,217.274 				
					"/>
				<polygon style="fill:#FFFFFF;" points="287.781,215.881 280.089,223.565 280.089,235.251 291.39,224.703 290.078,216.2 				"/>
				<path style="fill:#FFFFFF;" d="M278.242,202.87c0,0,7.956,1.989,9.875,0H278.242z"/>
				<path style="fill:#FFFFFF;" d="M302.684,300.84l13.446-0.744l2.448-63.184c-1.257-5.738-8.048-18.91-18.196-18.348l0,0
					L302.684,300.84z"/>
				<path style="fill:#FFFFFF;" d="M243.878,302.256l-14.31-0.792l-2.78-64.126c1.257-5.738,9.244-17.92,19.393-17.358l0,0
					L243.878,302.256z"/>
			</g>
			<g>
				<g>
					<g>
						<g>
							<g>
								<path style="fill:#1ED1AF;" d="M135.54,207.466c0,0-0.765,20.599,23.306,22.717c0,0,0.75-13.881-11.408-19.957
									c-0.551-0.275-3.082,2.486-3.688,2.244c-0.548-0.219,0.834-3.443,0.239-3.63c-0.797-0.251-1.636-0.473-2.52-0.662
									l-1.022,1.078l-0.446-1.354C138.618,207.677,137.133,207.528,135.54,207.466z"/>
							</g>
							<g>
								<path style="fill:#1ED1AF;" d="M187.91,208.844c0,0-10.232-0.38-16.576,8.109c-0.469,0.627,0.953,2.262,0.532,2.99
									c-0.34,0.589-2.532,0.251-2.834,0.91c-1.219,2.66-2.102,5.907-2.451,9.872C166.581,230.725,187.026,231.831,187.91,208.844z
									"/>
							</g>
							<g>
								<path style="fill:#14A88C;" d="M154.365,198.061c0,0-10.347,16.406,8.246,29.495
									C162.612,227.556,173.85,210.386,154.365,198.061z"/>
							</g>
							<g>
								<path style="fill:#1ED1AF;" d="M162.638,240.083c-0.257,0-0.474-0.2-0.491-0.46c-0.407-6.166-4.713-10.132-4.757-10.171
									c-0.202-0.182-0.217-0.494-0.034-0.696c0.182-0.201,0.494-0.217,0.696-0.034c0.189,0.171,4.645,4.277,5.079,10.836
									c0.018,0.272-0.188,0.506-0.459,0.524C162.66,240.083,162.649,240.083,162.638,240.083z"/>
							</g>
							<g>
								<path style="fill:#1ED1AF;" d="M163.307,240.083c-0.011,0-0.022,0-0.033-0.001c-0.271-0.018-0.477-0.253-0.459-0.524
									c0.433-6.559,4.89-10.665,5.079-10.836c0.202-0.183,0.513-0.167,0.695,0.034c0.183,0.201,0.167,0.513-0.034,0.696
									c-0.044,0.039-4.351,4.021-4.757,10.171C163.781,239.884,163.564,240.083,163.307,240.083z"/>
							</g>
							<g>
								<path style="fill:#14A88C;" d="M163.402,239.159l-0.921-0.35c1.564-4.114-0.781-12.965-0.805-13.054l0.951-0.255
									C162.73,225.874,165.079,234.75,163.402,239.159z"/>
							</g>
							<g>
								<g>
									<path style="fill:#1ABB9C;" d="M137.503,223.746c0,0,0.584,2.662,2.612,5.451c0.331,0.456,2.044-0.9,2.456-0.448
										c0.357,0.391-0.596,2.591-0.172,2.964c2.996,2.636,7.705,4.622,14.993,3.406
										C157.393,235.12,154.355,220.071,137.503,223.746z"/>
								</g>
								<g>
									<path style="fill:#1ABB9C;" d="M160.07,238.874c-0.755-2.702-4.571-4.336-4.609-4.353l0.381-0.908
										c0.175,0.073,4.292,1.832,5.176,4.996L160.07,238.874z"/>
								</g>
							</g>
							<g>
								<g>
									<path style="fill:#1ABB9C;" d="M185.184,219.246c0,0,0.926,14.482-15.974,16.426
										C169.211,235.672,167.972,220.37,185.184,219.246z"/>
								</g>
								<g>
									<path style="fill:#1ABB9C;" d="M166.69,240.027c-0.024-3.285,3.447-6.113,3.595-6.231l0.617,0.767
										c-0.033,0.026-3.248,2.651-3.227,5.457L166.69,240.027z"/>
								</g>
							</g>
						</g>
						<g>
							<g>
								<rect x="143.418" y="238.331" style="fill:#FECB69;" width="35.833" height="34.665"/>
							</g>
						</g>
						<g>
							<g>
								<rect x="143.418" y="245.985" style="fill:#FF9D00;" width="35.833" height="15.419"/>
							</g>
						</g>
						<g>
							<g>
								<rect x="143.418" y="261.474" style="fill:#FFDC6C;" width="35.833" height="11.582"/>
							</g>
						</g>
						<polygon style="opacity:0.2;fill:#ED845A;" points="149.953,244.562 179.251,244.562 179.251,238.331 143.418,238.331 
							143.418,272.996 149.953,272.996 						"/>
					</g>
				</g>
				<g>
					<path style="fill:#FECB69;" d="M405.68,441.333H97.952c-1.638,0-2.966-1.328-2.966-2.966v-0.241
						c0-1.638,1.328-2.966,2.966-2.966H405.68c1.638,0,2.966,1.328,2.966,2.966v0.241
						C408.645,440.005,407.318,441.333,405.68,441.333z"/>
					<g>
						<rect x="100.327" y="288.729" style="fill:#1E0D7D;" width="303.619" height="148.391"/>
						<path style="fill:#080056;" d="M403.946,437.12H100.327v-21.131c0,0,239.15-13.447,303.619-105.898V437.12z"/>
						<rect x="92.602" y="270.348" style="fill:#FECB69;" width="319.069" height="18.381"/>
						<rect x="92.602" y="276.762" style="fill:#FF9D00;" width="319.069" height="4.059"/>
						<rect x="100.327" y="288.729" style="fill:#4120D5;" width="303.619" height="4.059"/>
					</g>
					<line style="fill:none;stroke:#FFFFFF;stroke-miterlimit:10;" x1="155.461" y1="340.629" x2="347" y2="340.629"/>
					<line style="fill:none;stroke:#FFFFFF;stroke-miterlimit:10;" x1="155.461" y1="379.365" x2="347" y2="379.365"/>
					
						<text transform="matrix(1 0 0 1 159.8188 367.833)" style="fill:#FFFFFF; font-family:'Montserrat-ExtraBold'; font-size:23.9901px; letter-spacing:4;">RECEPTION</text>
				</g>
				<g>
					<path style="fill:#F99900;" d="M219.924,271.126c0-0.382-7.012-0.692-15.663-0.692c-8.651,0-15.663,0.31-15.663,0.692
						c0,0.382,7.013,0.692,15.663,0.692C212.911,271.819,219.924,271.509,219.924,271.126z"/>
					<g>
						<path style="fill:#FECB69;" d="M208.703,256.294h-3.849l0.001-0.004c1.865-0.036,3.328-0.374,3.328-0.786
							c0-0.363-1.134-0.667-2.676-0.76l1.612-3.827h-5.187l1.612,3.827c-1.543,0.093-2.676,0.397-2.676,0.76
							c0,0.412,1.462,0.75,3.327,0.786l0.002,0.004h-3.849c-4.426,0-8.014,3.588-8.014,8.014v6.991h24.384v-6.991
							C216.717,259.882,213.129,256.294,208.703,256.294z"/>
					</g>
					<g style="opacity:0.37;">
						<path style="fill:#ED845A;" d="M210.996,256.631c-0.657-0.196-1.35-0.306-2.066-0.326c-0.605,0.159-1.482,0.267-2.486,0.287
							l-0.001,0.004h3.849C210.53,256.596,210.764,256.611,210.996,256.631z"/>
						<path style="fill:#ED845A;" d="M207.135,254.954l-0.039,0.092c0.18,0.011,0.354,0.025,0.521,0.041
							C207.478,255.039,207.317,254.995,207.135,254.954z"/>
						<path style="fill:#ED845A;" d="M193.923,264.61c0-4.426,3.588-8.014,8.014-8.014h3.849l-0.002-0.004
							c-1.027-0.02-1.921-0.133-2.527-0.298h-2.911c-4.426,0-8.014,3.588-8.014,8.014v6.991h1.59V264.61z"/>
						<path style="fill:#ED845A;" d="M203.003,256.22c-0.345-0.12-0.546-0.262-0.546-0.414c0-0.363,1.133-0.667,2.676-0.76
							l-1.612-3.827h3.471l0.127-0.302h-5.187l1.612,3.827c-1.543,0.093-2.676,0.397-2.676,0.76
							C200.867,255.823,201.745,256.095,203.003,256.22z"/>
					</g>
				</g>
				<g>
					<ellipse style="fill:#F99900;" cx="354.859" cy="272.049" rx="18.677" ry="2.472"/>
					<g>
						<g>
							<path style="fill:#FFFFFF;" d="M358.431,242.308h-6.363c-0.556,0-1.102,0.153-1.576,0.443l-9.343,5.697
								c-0.901,0.549-1.451,1.529-1.451,2.585v18.583c0,1.672,1.355,3.027,3.027,3.027h25.048c1.672,0,3.027-1.355,3.027-3.027
								v-18.583c0-1.056-0.55-2.035-1.451-2.585l-9.343-5.697C359.532,242.461,358.987,242.308,358.431,242.308z"/>
							<rect x="339.698" y="253.828" style="fill:#9689F4;" width="31.103" height="11.52"/>
							<g>
								<rect x="354.385" y="255.503" style="fill:#FFFFFF;" width="1.728" height="8.17"/>
								
									<rect x="354.385" y="255.503" transform="matrix(6.123234e-17 -1 1 6.123234e-17 95.6615 614.8367)" style="fill:#FFFFFF;" width="1.728" height="8.17"/>
							</g>
							<rect x="350.086" y="237.798" style="fill:#9689F4;" width="10.326" height="4.953"/>
							<rect x="350.086" y="234.17" style="fill:#FFFFFF;" width="10.326" height="4.953"/>
							<rect x="353.615" y="226.949" style="fill:#9689F4;" width="3.269" height="7.221"/>
							<path style="fill:#9689F4;" d="M370.801,229.041h-13.917v1.519h12.744c0.648,0,1.173,0.525,1.173,1.173v0.976h1.701v-2.149
								l0,0c0-0.839-0.68-1.519-1.519-1.519H370.801z"/>
						</g>
						<path style="opacity:0.1;fill:#5022B2;" d="M344.85,272.007v-4.268v-11.52v-2.795c0-1.056,0.55-2.035,1.451-2.585l9.342-5.697
							c0.475-0.29,1.02-0.443,1.576-0.443h5.982l-3.195-1.948c-0.475-0.289-1.02-0.443-1.576-0.443h-6.363
							c-0.556,0-1.102,0.153-1.576,0.443l-9.343,5.697c-0.901,0.549-1.451,1.529-1.451,2.585v2.795v11.52v4.268
							c0,1.672,1.355,3.027,3.027,3.027h2.193C344.874,272.438,344.85,272.225,344.85,272.007z"/>
					</g>
				</g>
			</g>
		</g>
		<rect x="252.136" y="245.915" style="fill:#1E0D7D;" width="19.243" height="6.442"/>
		<g>
			
				<linearGradient id="SVGID_1_" gradientUnits="userSpaceOnUse" x1="105.9247" y1="341.9691" x2="82.7686" y2="301.8614" gradientTransform="matrix(-0.9707 0.2404 0.2404 0.9707 359.5131 -144.9187)">
				<stop  offset="0" style="stop-color:#FFFFFF;stop-opacity:0"/>
				<stop  offset="1" style="stop-color:#FFFFFF"/>
			</linearGradient>
			<polygon style="opacity:0.54;fill:url(#SVGID_1_);" points="347.154,166.674 365.091,206.967 316.195,205.945 338.766,166.213 
							"/>
			<g>
				<path style="fill:#FD4396;" d="M353.022,153.77h-20.829c-6.12,0-11.082,4.961-11.082,11.082v3.968h42.992v-3.968
					C364.104,158.731,359.142,153.77,353.022,153.77z"/>
				<rect x="341.016" style="fill:#FD4396;" width="3.183" height="153.77"/>
			</g>
		</g>
		<g>
			
				<linearGradient id="SVGID_00000025422982735311805800000009957481317734777532_" gradientUnits="userSpaceOnUse" x1="278.6677" y1="299.1882" x2="255.5116" y2="259.0805" gradientTransform="matrix(-0.9707 0.2404 0.2404 0.9707 359.5131 -144.9187)">
				<stop  offset="0" style="stop-color:#FFFFFF;stop-opacity:0"/>
				<stop  offset="1" style="stop-color:#FFFFFF"/>
			</linearGradient>
			<polygon style="opacity:0.54;fill:url(#SVGID_00000025422982735311805800000009957481317734777532_);" points="169.187,166.674 
				187.125,206.967 138.229,205.945 160.799,166.213 			"/>
			<g>
				<path style="fill:#FD4396;" d="M175.056,153.77h-20.829c-6.12,0-11.082,4.961-11.082,11.082v3.968h42.992v-3.968
					C186.138,158.731,181.176,153.77,175.056,153.77z"/>
				<rect x="163.05" style="fill:#FD4396;" width="3.183" height="153.77"/>
			</g>
		</g>
	</g>
</g>
</svg>
